<?xml version="1.0" encoding="UTF-8" standalone="no"?>
<!-- Created with Inkscape (http://www.inkscape.org/) -->

<svg
   xmlns:dc="http://purl.org/dc/elements/1.1/"
   xmlns:cc="http://creativecommons.org/ns#"
   xmlns:rdf="http://www.w3.org/1999/02/22-rdf-syntax-ns#"
   xmlns:svg="http://www.w3.org/2000/svg"
   xmlns="http://www.w3.org/2000/svg"
   xmlns:sodipodi="http://sodipodi.sourceforge.net/DTD/sodipodi-0.dtd"
   xmlns:inkscape="http://www.inkscape.org/namespaces/inkscape"
   width="120"
   height="42"
   id="svg2759"
   sodipodi:version="0.32"
   inkscape:version="0.91pre4 r13712"
   version="1.0"
   sodipodi:docname="by-sa.svg"
   inkscape:output_extension="org.inkscape.output.svg.inkscape"
   inkscape:export-xdpi="90"
   inkscape:export-ydpi="90">
  <defs
     id="defs2761" />
  <sodipodi:namedview
     id="base"
     pagecolor="#ffffff"
     bordercolor="#8b8b8b"
     borderopacity="1"
     gridtolerance="10000"
     guidetolerance="10"
     objecttolerance="10"
     inkscape:pageopacity="0.0"
     inkscape:pageshadow="2"
     inkscape:zoom="2"
     inkscape:cx="-12.084434"
     inkscape:cy="-18.894197"
     inkscape:document-units="px"
     inkscape:current-layer="layer1"
     width="120px"
     height="42px"
     inkscape:showpageshadow="false"
     inkscape:window-width="1440"
     inkscape:window-height="792"
     inkscape:window-x="0"
     inkscape:window-y="0"
     showgrid="false"
     inkscape:window-maximized="1" />
  <metadata
     id="metadata2764">
    <rdf:RDF>
      <cc:Work
         rdf:about="">
        <dc:format>image/svg+xml</dc:format>
        <dc:type
           rdf:resource="http://purl.org/dc/dcmitype/StillImage" />
      </cc:Work>
    </rdf:RDF>
  </metadata>
  <g
     inkscape:label="Layer 1"
     inkscape:groupmode="layer"
     id="layer1">
    <rect
       style="color:#000000;clip-rule:nonzero;display:inline;overflow:visible;visibility:visible;opacity:1;isolation:auto;mix-blend-mode:normal;color-interpolation:sRGB;color-interpolation-filters:linearRGB;solid-color:#000000;solid-opacity:1;fill:#e9edf1;fill-opacity:1;fill-rule:nonzero;stroke:none;stroke-width:1.10000002;stroke-linecap:square;stroke-linejoin:round;stroke-miterlimit:4;stroke-dasharray:1.10000002, 1.10000002;stroke-dashoffset:0;stroke-opacity:1;marker:none;color-rendering:auto;image-rendering:auto;shape-rendering:auto;text-rendering:auto;enable-background:accumulate"
       id="rect4157"
       width="43.5"
       height="50.5"
       x="-142"
       y="-51.5"
       rx="0"
       ry="0" />
    <g
       id="g4314"
       style="fill:#78879b;fill-opacity:1">
      <path
         style="fill:#78879b;fill-opacity:1"
         d="M 117.75332,2e-6 2.2466808,2e-6 C 1.0078536,2e-6 9.7349798e-7,1.0082287 9.7349798e-7,2.2469171 l 0,39.2455789 c 0,0.279956 0.22709876650202,0.507507 0.50707660650202,0.507507 l 118.98536242,0 c 0.27999,0 0.50756,-0.227551 0.50756,-0.507507 L 120,2.246927 C 120,1.0082287 118.99215,2e-6 117.75332,2e-6 Z M 2.2466808,1.0150254 l 115.5066392,0 c 0.67934,0 1.23156,0.5526292 1.23156,1.2319016 0,0 0,15.81865 0,27.244884 l -82.557092,0 c -3.025983,5.470518 -8.855709,9.185133 -15.546258,9.185133 -6.693461,0 -12.5217365,-3.711217 -15.5462583,-9.185133 l -4.3210976,0 c 0,-11.426224 0,-27.244884 0,-27.244884 -1.99e-5,-0.6792724 0.5531681,-1.2319016 1.2325067,-1.2319016 z"
         id="path294"
         inkscape:connector-curvature="0" />
      <g
         style="fill:#78879b;fill-opacity:1"
         id="g4308">
        <g
           id="g5706_2_"
           transform="matrix(0.86749204,0,0,0.86739489,-379.11978,153.80009)"
           style="fill:#78879b;fill-opacity:1">
          <path
             id="path5708_2_"
             d="m 473.88455,-167.54724 c 3.48541,3.48596 5.22839,7.75391 5.22839,12.80273 0,5.04938 -1.7128,9.27148 -5.13834,12.66736 -3.63531,3.5766 -7.93179,5.36432 -12.88947,5.36432 -4.89777,0 -9.11987,-1.77261 -12.6651,-5.31955 -3.54584,-3.54581 -5.31845,-7.78299 -5.31845,-12.71213 0,-4.92859 1.77261,-9.19598 5.31845,-12.80273 3.4552,-3.48651 7.67725,-5.22894 12.6651,-5.22894 5.04829,0 9.31401,1.74243 12.79942,5.22894 z m -23.11798,2.34485 c -2.94675,2.97638 -4.41956,6.46289 -4.41956,10.46234 0,3.99835 1.45828,7.4552 4.37424,10.37067 2.91653,2.9165 6.38849,4.37476 10.41705,4.37476 4.02853,0 7.53018,-1.47281 10.50656,-4.41901 2.8259,-2.73584 4.23941,-6.17706 4.23941,-10.32642 0,-4.11804 -1.43646,-7.61292 -4.30768,-10.48474 -2.87064,-2.87067 -6.34988,-4.30652 -10.43829,-4.30652 -4.08837,0 -7.54638,1.44318 -10.37173,4.32892 z m 7.75449,8.70312 c -0.45032,-0.98163 -1.12433,-1.47223 -2.02325,-1.47223 -1.58914,0 -2.38342,1.06952 -2.38342,3.2085 0,2.13959 0.79428,3.20911 2.38342,3.20911 1.04938,0 1.79895,-0.5213 2.24866,-1.56512 l 2.20276,1.17303 c -1.04993,1.86548 -2.62506,2.79901 -4.72549,2.79901 -1.6199,0 -2.91763,-0.4967 -3.89206,-1.48956 -0.97607,-0.99341 -1.46274,-2.36273 -1.46274,-4.10797 0,-1.71558 0.50229,-3.07709 1.50748,-4.08563 1.00519,-1.00793 2.25705,-1.51251 3.75781,-1.51251 2.22012,0 3.80984,0.87488 4.77081,2.62286 l -2.38398,1.22051 z m 10.36334,0 c -0.45087,-0.98163 -1.11148,-1.47223 -1.98239,-1.47223 -1.62106,0 -2.43213,1.06952 -2.43213,3.2085 0,2.13959 0.81107,3.20911 2.43213,3.20911 1.05103,0 1.78717,-0.5213 2.20724,-1.56512 l 2.25201,1.17303 c -1.04825,1.86548 -2.62119,2.79901 -4.71768,2.79901 -1.61771,0 -2.91263,-0.4967 -3.88647,-1.48956 -0.97217,-0.99341 -1.45938,-2.36273 -1.45938,-4.10797 0,-1.71558 0.49448,-3.07709 1.48288,-4.08563 0.98782,-1.00793 2.24527,-1.51251 3.77347,-1.51251 2.21619,0 3.80368,0.87488 4.76132,2.62286 l -2.431,1.22051 z"
             inkscape:connector-curvature="0"
             style="fill:#78879b;fill-opacity:1" />
        </g>
        <path
           style="fill:#78879b;fill-opacity:1"
           d="M 63.332031 3.3867188 C 60.120678 3.3867188 57.401115 4.5059809 55.175781 6.7480469 C 52.892222 9.0662875 51.75 11.811687 51.75 14.980469 C 51.75 18.14925 52.892222 20.873906 55.175781 23.154297 C 57.45934 25.434202 60.178427 26.576172 63.332031 26.576172 C 66.524939 26.576172 69.291992 25.425285 71.632812 23.125 C 73.839702 20.942127 74.943359 18.227363 74.943359 14.980469 C 74.943359 11.733574 73.820914 8.9891391 71.576172 6.7480469 C 69.331431 4.5059909 66.583165 3.3867188 63.332031 3.3867188 z M 63.361328 5.4726562 C 65.993296 5.4726562 68.228299 6.4004898 70.066406 8.2558594 C 71.924895 10.091336 72.853516 12.333274 72.853516 14.980469 C 72.853516 17.64707 71.944663 19.860813 70.125 21.619141 C 68.20926 23.512836 65.954469 24.458984 63.361328 24.458984 C 60.768186 24.458984 58.532687 23.521259 56.65625 21.646484 C 54.778352 19.772195 53.839844 17.551002 53.839844 14.980469 C 53.839844 12.410412 54.789214 10.168961 56.685547 8.2558594 C 58.504732 6.4004898 60.730333 5.4726563 63.361328 5.4726562 z M 63.347656 7.4921875 A 1.6221682 1.6219865 0 0 0 61.724609 9.1152344 A 1.6221682 1.6219865 0 0 0 63.347656 10.736328 A 1.6221682 1.6219865 0 0 0 64.96875 9.1152344 A 1.6221682 1.6219865 0 0 0 63.347656 7.4921875 z M 60.976562 11.361328 C 60.56313 11.361328 60.226562 11.695501 60.226562 12.109375 L 60.226562 16.853516 L 61.548828 16.853516 L 61.548828 22.46875 L 65.144531 22.46875 L 65.144531 16.853516 L 66.46875 16.853516 L 66.46875 12.109375 C 66.46875 11.695511 66.132183 11.361328 65.71875 11.361328 L 60.976562 11.361328 z "
           id="path319" />
        <path
           style="fill:#78879b;fill-opacity:1"
           d="M 91.742188 3.3867188 C 88.529854 3.3867188 85.811262 4.5069428 83.585938 6.7480469 C 81.302365 9.0672776 80.162109 11.811217 80.162109 14.980469 C 80.162109 18.149721 81.302366 20.874415 83.585938 23.154297 C 85.868521 25.434713 88.588083 26.576172 91.742188 26.576172 C 94.935092 26.576172 97.702162 25.426776 100.04492 23.126953 C 102.24989 20.943618 103.35352 18.226891 103.35352 14.980469 C 103.35352 11.734537 102.23108 8.9896105 99.986328 6.7480469 C 97.741601 4.5069428 94.993321 3.3867188 91.742188 3.3867188 z M 91.771484 5.4726562 C 94.403441 5.4726562 96.63748 6.4004761 98.476562 8.2558594 C 100.3331 10.091835 101.26367 12.33279 101.26367 14.980469 C 101.26367 17.647096 100.35483 19.860341 98.535156 21.619141 C 96.619423 23.512848 94.364622 24.458984 91.771484 24.458984 C 89.178327 24.458984 86.943338 23.522241 85.066406 21.648438 C 83.189492 19.773194 82.25 17.551009 82.25 14.980469 C 82.25 12.41042 83.19938 10.168975 85.095703 8.2558594 C 86.9144 6.4004699 89.139508 5.4726563 91.771484 5.4726562 z M 91.693359 8.8671875 C 89.119618 8.8671875 87.065477 10.426304 86.603516 13.34375 L 85.6875 13.339844 L 87.986328 15.638672 L 90.287109 13.339844 L 89.435547 13.34375 C 89.667494 11.755754 90.766747 11.292969 92.039062 11.292969 C 93.775277 11.292969 94.701172 12.59428 94.701172 15.048828 C 94.701172 17.388907 93.630327 18.919922 91.982422 18.919922 C 90.536402 18.919922 89.522887 18.369968 89.435547 16.810547 L 86.515625 16.810547 C 86.921296 19.813889 89.147396 21.345703 91.634766 21.345703 C 95.250788 21.345703 97.650391 18.629586 97.650391 15.134766 C 97.650391 11.553064 95.395765 8.8671875 91.693359 8.8671875 z "
           id="path6322_1_" />
      </g>
    </g>
    <g
       id="g296"
       enable-background="new    "
       transform="matrix(0.9937807,0,0,0.9936694,-177.69409,-74.436409)"
       style="fill:#e9edf1;fill-opacity:1">
      <path
         inkscape:connector-curvature="0"
         style="fill:#e9edf1;fill-opacity:1"
         id="path298"
         d="m 265.60986,112.8833 c 0.0801,0.15576 0.1875,0.28174 0.32129,0.37842 0.13379,0.0962 0.29004,0.16797 0.46973,0.21436 0.18066,0.0469 0.36719,0.0703 0.55957,0.0703 0.12988,0 0.26953,-0.0107 0.41895,-0.0327 0.14844,-0.0215 0.28809,-0.064 0.41895,-0.12598 0.12988,-0.062 0.23926,-0.14795 0.3252,-0.25684 0.0879,-0.10889 0.13086,-0.24707 0.13086,-0.41553 0,-0.18018 -0.0576,-0.32617 -0.17285,-0.43848 -0.11426,-0.1123 -0.26562,-0.20508 -0.45215,-0.28027 -0.18555,-0.0742 -0.39746,-0.13965 -0.63281,-0.1958 -0.23633,-0.0562 -0.47559,-0.11816 -0.71777,-0.18701 -0.24902,-0.062 -0.49121,-0.13818 -0.72754,-0.22852 -0.23535,-0.0898 -0.44727,-0.20703 -0.63379,-0.3501 -0.18652,-0.14307 -0.33691,-0.32178 -0.45215,-0.53662 -0.11426,-0.21484 -0.17188,-0.47461 -0.17188,-0.7793 0,-0.34277 0.0732,-0.63965 0.21875,-0.8916 0.14648,-0.25195 0.33789,-0.46191 0.57422,-0.63037 0.23535,-0.16797 0.50293,-0.29248 0.80176,-0.37354 0.29785,-0.0806 0.59668,-0.12109 0.89453,-0.12109 0.34863,0 0.68262,0.0391 1.00293,0.11719 0.31934,0.0776 0.60449,0.2041 0.85254,0.37842 0.24902,0.17432 0.44629,0.39697 0.59277,0.66797 0.14551,0.271 0.21875,0.59961 0.21875,0.98535 l -1.42188,0 c -0.0127,-0.19922 -0.0547,-0.36426 -0.125,-0.49463 -0.0713,-0.13086 -0.16602,-0.2334 -0.2832,-0.30859 -0.11816,-0.0742 -0.25293,-0.12744 -0.4043,-0.1582 -0.15234,-0.0312 -0.31738,-0.0469 -0.49707,-0.0469 -0.11719,0 -0.23535,0.0127 -0.35254,0.0371 -0.11816,0.0254 -0.22461,0.0688 -0.32031,0.13086 -0.0967,0.0625 -0.17578,0.14014 -0.2373,0.2334 -0.0615,0.0937 -0.0928,0.21191 -0.0928,0.35498 0,0.13086 0.0244,0.23682 0.0742,0.31738 0.0498,0.0811 0.14844,0.15576 0.29395,0.22412 0.14551,0.0684 0.34766,0.13721 0.60547,0.20557 0.25781,0.0684 0.59473,0.15576 1.01172,0.26123 0.12402,0.0249 0.2959,0.0703 0.5166,0.13574 0.2207,0.0654 0.43945,0.16943 0.65723,0.3125 0.21777,0.14355 0.40527,0.33496 0.56445,0.57422 0.1582,0.23975 0.2373,0.54639 0.2373,0.91992 0,0.30518 -0.0596,0.58838 -0.17773,0.84961 -0.11816,0.26172 -0.29395,0.4873 -0.52734,0.67676 -0.2334,0.19043 -0.52246,0.33789 -0.86719,0.44385 -0.3457,0.10596 -0.74609,0.15869 -1.19922,0.15869 -0.36719,0 -0.72363,-0.0454 -1.06934,-0.13574 -0.34473,-0.0903 -0.65039,-0.23242 -0.91504,-0.42578 -0.26367,-0.19336 -0.47363,-0.43994 -0.62988,-0.73877 -0.15527,-0.29932 -0.22949,-0.65381 -0.22363,-1.06494 l 1.42188,0 c -3e-5,0.22412 0.04,0.41406 0.12106,0.56933 z" />
      <path
         inkscape:connector-curvature="0"
         style="fill:#e9edf1;fill-opacity:1"
         id="path300"
         d="m 273.8667,107.8667 2.49316,6.66406 -1.52246,0 -0.50391,-1.48438 -2.49316,0 -0.52246,1.48438 -1.47461,0 2.52051,-6.66406 1.50293,0 z m 0.084,4.08594 -0.83984,-2.44336 -0.0186,0 -0.86914,2.44336 1.72753,0 z" />
    </g>
    <g
       id="g302"
       enable-background="new    "
       transform="matrix(0.9937807,0,0,0.9936694,-177.69409,-74.436409)"
       style="fill:#e9edf1;fill-opacity:1">
      <path
         inkscape:connector-curvature="0"
         style="fill:#e9edf1;fill-opacity:1"
         id="path304"
         d="m 239.17821,107.8667 c 0.31738,0 0.60742,0.0283 0.86914,0.084 0.26172,0.0561 0.48633,0.14795 0.67383,0.27539 0.18652,0.12744 0.33203,0.29688 0.43457,0.5083 0.10254,0.21142 0.1543,0.47266 0.1543,0.78369 0,0.33594 -0.0762,0.61523 -0.22949,0.83936 -0.15234,0.22412 -0.37891,0.40723 -0.67773,0.55029 0.41211,0.11816 0.71973,0.3252 0.92285,0.62109 0.20312,0.29589 0.30469,0.65234 0.30469,1.06934 0,0.33594 -0.0654,0.62695 -0.19629,0.87305 -0.13086,0.24561 -0.30762,0.44629 -0.52832,0.60205 -0.22168,0.15576 -0.47461,0.271 -0.75781,0.34521 -0.28418,0.0752 -0.5752,0.1123 -0.875,0.1123 l -3.23633,0 0,-6.66406 3.14159,0 0,1e-5 z m -0.1875,2.69531 c 0.26172,0 0.47656,-0.062 0.64551,-0.18604 0.16797,-0.12451 0.25195,-0.32568 0.25195,-0.60498 0,-0.15527 -0.0283,-0.28271 -0.084,-0.38184 -0.0566,-0.0996 -0.13086,-0.17676 -0.22461,-0.23291 -0.0937,-0.0557 -0.20117,-0.0947 -0.32227,-0.11621 -0.12207,-0.022 -0.24805,-0.0327 -0.37891,-0.0327 l -1.37305,0 0,1.55469 1.48536,0 z m 0.0859,2.82813 c 0.14355,0 0.28027,-0.0137 0.41113,-0.042 0.13086,-0.0278 0.24707,-0.0747 0.34668,-0.13965 0.0996,-0.0654 0.17871,-0.1543 0.23828,-0.26611 0.0596,-0.11181 0.0889,-0.25488 0.0889,-0.4292 0,-0.3418 -0.0967,-0.58594 -0.29004,-0.73193 -0.19336,-0.14599 -0.44922,-0.21924 -0.7666,-0.21924 l -1.59961,0 0,1.82812 1.57129,0 z" />
      <path
         inkscape:connector-curvature="0"
         style="fill:#e9edf1;fill-opacity:1"
         id="path306"
         d="m 241.88914,107.8667 1.64355,0 1.56055,2.63184 1.55078,-2.63184 1.63379,0 -2.47363,4.10645 0,2.55762 -1.46875,0 0,-2.59473 -2.44629,-4.06934 z" />
    </g>
    <rect
       style="color:#000000;clip-rule:nonzero;display:inline;overflow:visible;visibility:visible;opacity:1;isolation:auto;mix-blend-mode:normal;color-interpolation:sRGB;color-interpolation-filters:linearRGB;solid-color:#000000;solid-opacity:1;fill:#78879b;fill-opacity:1;fill-rule:nonzero;stroke:none;stroke-width:1.10000002;stroke-linecap:square;stroke-linejoin:round;stroke-miterlimit:4;stroke-dasharray:1.10000002, 1.10000002;stroke-dashoffset:0;stroke-opacity:1;marker:none;color-rendering:auto;image-rendering:auto;shape-rendering:auto;text-rendering:auto;enable-background:accumulate"
       id="rect4157-3"
       width="51"
       height="48.5"
       x="-142"
       y="5.5"
       rx="0"
       ry="0" />
  </g>
</svg>
