<?xml version="1.0" standalone="no"?>
<!DOCTYPE svg PUBLIC "-//W3C//DTD SVG 1.1//EN" "http://www.w3.org/Graphics/SVG/1.1/DTD/svg11.dtd" >
<svg xmlns="http://www.w3.org/2000/svg">
<metadata></metadata>
<defs>
<font id="fira_monoregular" horiz-adv-x="1228" >
<font-face units-per-em="2048" ascent="1638" descent="-410" />
<missing-glyph horiz-adv-x="500" />
<glyph horiz-adv-x="0" />
<glyph unicode="&#xd;" />
<glyph unicode=" " />
<glyph unicode="!" d="M475 115q0 57 40 97t97 40q60 0 99 -40t39 -97q0 -59 -39 -98.5t-99 -39.5q-57 0 -97 40t-40 98zM514 1411h193l-19 -946h-153z" />
<glyph unicode="&#x22;" d="M336 1513h215l-33 -532h-151zM678 1513h215l-31 -532h-151z" />
<glyph unicode="#" d="M109 348v131h178l63 455h-166v135h183l47 342h145l-47 -342h299l47 342h146l-48 -342h164v-135h-182l-59 -455h165v-131h-186l-43 -348h-145l45 348h-297l-47 -348h-146l45 348h-161zM434 479h297l64 455h-301z" />
<glyph unicode="$" d="M141 170l103 115q145 -145 325 -160v565q-184 61 -279 156.5t-95 234.5q0 84 42 160t127 126t205 63v307h140v-307q113 -12 209 -56.5t165 -107.5l-104 -109q-121 111 -270 129v-465q180 -59 286.5 -159.5t106.5 -274.5q0 -154 -102.5 -265.5t-290.5 -135.5v-299h-140 v293q-133 6 -241.5 60t-186.5 130zM377 1083q0 -76 42 -125t150 -92v416q-88 -14 -140 -64.5t-52 -134.5zM709 133q207 41 206 252q0 88 -47 149.5t-159 108.5v-510z" />
<glyph unicode="%" d="M39 1104q0 139 82 234.5t219 95.5q139 0 220 -95.5t81 -234.5q0 -88 -36 -164t-104.5 -121t-160.5 -45t-160.5 46t-104.5 121t-36 163zM66 31l968 1417l109 -72l-969 -1417zM197 1104q0 -96 39.5 -152.5t103.5 -56.5q66 0 103.5 52t37.5 157q0 106 -37.5 156.5 t-103.5 50.5q-64 0 -103.5 -53.5t-39.5 -153.5zM592 319q0 137 82 232.5t219 95.5q139 0 220 -95t81 -233q0 -88 -36 -163.5t-104.5 -121.5t-160.5 -46t-160.5 46t-104.5 121.5t-36 163.5zM750 319q0 -98 39.5 -154t103.5 -56q66 0 103.5 52t37.5 158t-38 155.5t-103 49.5 q-66 0 -104.5 -51t-38.5 -154z" />
<glyph unicode="&#x26;" d="M111 399q0 158 82.5 259.5t236.5 134.5v6q-129 31 -187.5 110.5t-58.5 184.5q0 90 47.5 167.5t135.5 124t204 46.5q101 0 182 -33t160 -121l-102 -94q-55 61 -111.5 90t-130.5 29q-106 0 -161.5 -57.5t-55.5 -151.5q0 -61 34 -115.5t92.5 -86.5t127.5 -32h570v-137h-185 v-557q-61 -76 -163.5 -132.5t-260.5 -56.5q-152 0 -255 59.5t-152 156t-49 206.5zM279 406q0 -123 73.5 -206t218.5 -83q86 0 154 27.5t109 78.5v500h-254q-100 0 -168 -47t-100.5 -120t-32.5 -150z" />
<glyph unicode="'" d="M506 1513h217l-33 -532h-151z" />
<glyph unicode="(" d="M256 717q0 227 60.5 401t174 315.5t293.5 286.5l88 -94q-158 -139 -251 -264t-139 -279.5t-46 -365.5q0 -209 47 -363.5t140.5 -280.5t248.5 -266l-88 -94q-180 145 -293.5 286.5t-174 315.5t-60.5 402z" />
<glyph unicode=")" d="M356 -193q156 139 249 265.5t140.5 281t47.5 363.5q0 211 -46.5 365.5t-139.5 279.5t-251 264l88 94q180 -145 294 -286.5t174.5 -315.5t60.5 -401t-60.5 -401.5t-174 -315.5t-294.5 -287z" />
<glyph unicode="*" d="M197 707l51 163l309 -129l-29 338h172l-30 -338l311 129l51 -163l-323 -74l225 -246l-139 -106l-179 286l-165 -293l-146 99l217 260z" />
<glyph unicode="+" d="M238 565v144h294v305h160v-305h299v-144h-299v-305h-160v305h-294z" />
<glyph unicode="," d="M420 -367l96 404q-29 23 -47 59.5t-18 75.5q0 70 47 118t116 48q70 0 118 -48t48 -116q0 -76 -39 -162l-166 -379h-155z" />
<glyph unicode="-" d="M256 567v148h717v-148h-717z" />
<glyph unicode="." d="M432 158q0 75 52.5 127.5t127.5 52.5q78 0 129.5 -52.5t51.5 -127.5q0 -78 -51.5 -129.5t-129.5 -51.5q-76 0 -128 52.5t-52 128.5z" />
<glyph unicode="/" d="M109 -150l874 1807l137 -66l-872 -1802z" />
<glyph unicode="0" d="M154 707q0 352 117.5 539.5t342.5 187.5q226 0 343.5 -187.5t117.5 -539.5q0 -354 -117.5 -542t-343.5 -188q-225 0 -342.5 187.5t-117.5 542.5zM334 707q0 -590 280 -590q281 0 281 590q0 588 -281 587q-280 1 -280 -587zM481 707q0 55 38 94t95 39q58 0 97 -39t39 -94 q0 -57 -39 -96.5t-97 -39.5q-57 0 -95 39t-38 97z" />
<glyph unicode="1" d="M195 1149l419 262h152v-1272h293v-139h-813v139h346v1084l-322 -195z" />
<glyph unicode="2" d="M121 1231q84 104 187.5 153.5t242.5 49.5q129 0 226 -51.5t148.5 -140.5t51.5 -202q0 -131 -60.5 -253.5t-193.5 -269t-377 -370.5h664l-21 -147h-839v139q276 264 410 413.5t185.5 256t51.5 225.5t-67.5 186.5t-186.5 67.5q-100 0 -167 -33.5t-136 -115.5z" />
<glyph unicode="3" d="M106 164l115 94q57 -68 140 -103.5t174 -35.5q147 0 230 76.5t83 210.5q0 268 -293 268h-117l21 137h84q111 0 188.5 62.5t77.5 183.5q0 113 -75 175t-191 62q-88 0 -157 -30.5t-142 -98.5l-94 105q172 164 401 164q129 0 227.5 -48.5t151.5 -129t53 -177.5 q0 -123 -80 -214t-194 -113q133 -10 226 -100.5t93 -245.5q0 -121 -61.5 -219.5t-173 -154t-254.5 -55.5q-125 0 -241 47.5t-192 139.5z" />
<glyph unicode="4" d="M147 342v127l414 965l144 -62l-375 -891h405l15 400h149v-400h182v-139h-182v-342h-166v342h-586z" />
<glyph unicode="5" d="M158 145l106 105q129 -131 303 -131q141 0 219 86t78 248q0 160 -69.5 230.5t-186.5 70.5q-55 0 -100 -10.5t-119 -36.5h-139v704h747l-24 -139h-557v-445q59 35 117.5 48.5t123.5 13.5q176 0 281.5 -117t105.5 -326q0 -139 -58 -245.5t-166.5 -165t-252.5 -58.5 q-236 0 -409 168z" />
<glyph unicode="6" d="M162 666q0 233 62.5 406t180 267.5t281.5 94.5q154 0 281 -84l-68 -115q-100 59 -215 59q-162 0 -253 -151.5t-95 -413.5q66 98 149.5 143.5t190.5 45.5q110 0 201.5 -49.5t144.5 -148.5t53 -245q0 -152 -59.5 -265.5t-159.5 -173t-225 -59.5q-246 0 -357.5 178.5 t-111.5 510.5zM338 578q4 -240 73.5 -350.5t219.5 -110.5q131 0 199.5 93t68.5 259q0 309 -250 309q-98 0 -177 -54t-134 -146z" />
<glyph unicode="7" d="M199 1268v143h835v-133l-563 -1296l-160 47l549 1239h-661z" />
<glyph unicode="8" d="M133 375q0 236 285 368q-117 55 -171 130t-54 192q0 121 63 205t160.5 124t197.5 40q109 0 205 -39t156.5 -120t60.5 -200q0 -100 -61.5 -176t-181.5 -143q143 -59 223 -155.5t80 -221.5q0 -115 -59.5 -207t-170 -143.5t-256.5 -51.5q-147 0 -255.5 52.5t-165 142.5 t-56.5 203zM315 375q0 -121 76 -189.5t219 -68.5t223 71.5t80 186.5q0 90 -45 146.5t-117.5 89t-215.5 83.5q-219 -102 -220 -319zM360 1063q0 -78 36 -124t95.5 -73.5t180.5 -66.5q104 61 150 119.5t46 148.5q0 106 -66.5 168.5t-187.5 62.5t-187.5 -61t-66.5 -174z" />
<glyph unicode="9" d="M135 967q0 147 60.5 251.5t164 159t232.5 54.5q231 0 346 -143.5t115 -401.5q0 -297 -77 -473t-235.5 -277.5t-439.5 -179.5l-41 131q301 80 454.5 219t155.5 383q-53 -76 -138 -125t-195 -49q-117 0 -208 55.5t-142.5 156.5t-51.5 239zM315 961q0 -156 64.5 -231 t185.5 -75q99 0 174.5 49.5t134.5 139.5q4 246 -63.5 347t-218.5 101q-137 0 -207 -84t-70 -247z" />
<glyph unicode=":" d="M449 143q0 68 47 117t116 49q72 0 119 -48t47 -118q0 -72 -47 -119t-119 -47q-70 0 -116.5 47.5t-46.5 118.5zM449 883q0 67 47 115.5t116 48.5q72 0 119 -48.5t47 -115.5q0 -70 -47 -119t-119 -49q-70 0 -116.5 49t-46.5 119z" />
<glyph unicode=";" d="M416 -369l98 406q-31 23 -48 59.5t-17 77.5q0 70 47 118t116 48q70 0 118 -48t48 -118q0 -74 -39 -162l-168 -381h-155zM449 883q0 68 47 116t116 48q72 0 119 -48.5t47 -115.5q0 -70 -47 -119t-119 -49q-70 0 -116.5 49t-46.5 119z" />
<glyph unicode="&#x3c;" d="M180 553v178l787 486l84 -132l-723 -444l723 -448l-93 -125z" />
<glyph unicode="=" d="M217 369v147h795v-147h-795zM217 758v147h795v-147h-795z" />
<glyph unicode="&#x3e;" d="M180 195l723 446l-723 444l84 132l787 -488v-176l-779 -485z" />
<glyph unicode="?" d="M184 1231q172 203 428 203q121 0 213.5 -45.5t142.5 -118t50 -154.5q0 -78 -25.5 -133t-63.5 -91t-102 -81q-61 -43 -96 -76t-59.5 -82t-24.5 -118v-70h-172v80q0 84 28.5 145.5t69.5 100t107 90.5q82 63 120 109t38 116q0 86 -68 135t-174 49q-76 0 -152.5 -38 t-138.5 -113zM430 115q0 57 40 97t97 40q60 0 99 -40t39 -97q0 -59 -39 -98.5t-99 -39.5q-57 0 -97 40t-40 98z" />
<glyph unicode="@" d="M18 1210q133 115 276.5 169.5t287.5 54.5q358 0 488 -234.5t130 -615.5q0 -274 -24.5 -439t-90 -248t-186.5 -83q-80 0 -135 49t-82 117.5t-25 125.5h-8q-82 -201 -280 -200q-160 0 -234 126t-74 343q0 264 103.5 396t298.5 132q76 0 141.5 -16.5t147.5 -59.5v-606 q0 -152 37.5 -210t105.5 -58q59 0 87 74.5t34 192.5t6 329q0 233 -32 390t-128 250t-278 93q-117 0 -231.5 -41t-233.5 -147zM227 375q0 -162 37 -251t125 -89q66 0 108 29.5t61.5 63.5t41.5 87v533q-59 29 -131 28q-135 0 -188.5 -96t-53.5 -305z" />
<glyph unicode="A" d="M41 0l461 1411h225l459 -1411h-185l-112 360h-559l-113 -360h-176zM377 508h465l-232 752z" />
<glyph unicode="B" d="M197 0v1411h348q215 0 357 -83t142 -273q0 -127 -75.5 -204t-188.5 -103q326 -55 326 -347q0 -213 -152.5 -307t-375.5 -94h-381zM375 147h233q129 0 219.5 53.5t90.5 194.5q0 150 -81 209.5t-223 59.5h-239v-517zM375 811h227q260 0 260 233q0 117 -71.5 169.5 t-204.5 52.5h-211v-455z" />
<glyph unicode="C" d="M129 707q0 229 81 394t219 249t304 84q131 0 225.5 -34t184.5 -104l-101 -116q-125 104 -297 104q-190 0 -310 -138t-120 -439q0 -299 117 -438.5t311 -139.5q106 0 182 30.5t146 86.5l92 -115q-158 -154 -422 -154q-174 0 -313 85t-219 249t-80 396z" />
<glyph unicode="D" d="M170 0v1411h301q297 0 479.5 -149.5t182.5 -548.5q0 -402 -184.5 -557.5t-454.5 -155.5h-324zM348 143h168q182 0 304 126t122 444q0 229 -62.5 351t-154.5 162t-211 40h-166v-1123z" />
<glyph unicode="E" d="M258 0v1411h801l-21 -147h-604v-476h524v-145h-524v-500h643v-143h-819z" />
<glyph unicode="F" d="M283 0v1411h831l-20 -147h-633v-494h553v-143h-553v-627h-178z" />
<glyph unicode="G" d="M92 707q0 233 82 397t217 247t293 83q133 0 223 -37t178 -119l-106 -111q-66 59 -136.5 88t-158.5 29q-172 0 -286.5 -137t-114.5 -440q0 -301 93 -440.5t281 -139.5q150 0 269 68v428h-277l-20 149h475v-672q-106 -59 -214 -91t-247 -32q-258 0 -404.5 185.5 t-146.5 544.5z" />
<glyph unicode="H" d="M170 0v1411h178v-596h533v596h178v-1411h-178v670h-533v-670h-178z" />
<glyph unicode="I" d="M211 0v141h313v1127h-313v143h807v-143h-313v-1127h313v-141h-807z" />
<glyph unicode="J" d="M150 104l77 117q154 -96 305 -96q147 0 227.5 93t80.5 259v789h-418v145h596v-942q0 -207 -113.5 -350.5t-369.5 -143.5q-104 0 -204 33t-181 96z" />
<glyph unicode="K" d="M215 0v1411h178v-1411h-178zM403 754l553 657h207l-551 -647l590 -764h-223z" />
<glyph unicode="L" d="M279 0v1411h176v-1253h645l-23 -158h-798z" />
<glyph unicode="M" d="M61 0l80 1411h248l229 -967l220 967h249l80 -1411h-172l-43 737q-12 195 -12 510l-238 -993h-178l-254 993q4 -74 4 -196q0 -188 -8 -314l-37 -737h-168z" />
<glyph unicode="N" d="M170 0v1411h242l506 -1245l-5 74q-20 252 -20 465v706h166v-1411h-250l-498 1239q0 -14 12.5 -178t12.5 -354v-707h-166z" />
<glyph unicode="O" d="M96 702q0 215 59.5 381t176.5 258.5t282 92.5q250 0 384.5 -198t134.5 -531q0 -330 -134.5 -529t-384.5 -199q-252 0 -385 195t-133 530zM281 702q0 -287 80.5 -431t252.5 -144q174 0 254 144.5t80 433.5q0 288 -80 433.5t-254 145.5t-253.5 -146.5t-79.5 -435.5z" />
<glyph unicode="P" d="M238 0v1411h358q260 0 402.5 -108.5t142.5 -325.5q0 -236 -145.5 -344.5t-399.5 -108.5h-182v-524h-176zM414 666h198q160 0 249 69.5t89 239.5q0 153 -89 224t-243 71h-204v-604z" />
<glyph unicode="Q" d="M92 702q0 215 59.5 381t177 258.5t285.5 92.5q250 0 385.5 -198t135.5 -531q0 -238 -69 -401t-224 -249q152 -31 236.5 -106.5t135.5 -229.5l-188 -73q-70 174 -164 254t-268 80q-160 0 -272.5 89t-171 251.5t-58.5 381.5zM279 702q0 -287 81.5 -431t253.5 -144 q174 0 254 144.5t80 433.5q0 288 -80 433.5t-254 145.5t-254.5 -146.5t-80.5 -435.5z" />
<glyph unicode="R" d="M209 0v1411h360q262 0 396.5 -100.5t134.5 -296.5q0 -152 -94.5 -251t-249.5 -138l420 -625h-213l-388 604h-190v-604h-176zM385 743h207q158 0 238.5 64.5t80.5 206.5q0 135 -77.5 194.5t-243.5 59.5h-205v-525z" />
<glyph unicode="S" d="M88 156l107 120q78 -74 173 -112.5t218 -38.5q139 0 233 67.5t94 194.5q0 72 -26.5 119t-93 84t-187.5 72q-229 68 -341.5 158.5t-112.5 248.5q0 104 57 188t161.5 130.5t237.5 46.5q139 0 249 -41t202 -121l-107 -115q-145 127 -338 127q-123 0 -202.5 -53t-79.5 -156 q0 -61 32.5 -104t108.5 -80t213 -76q199 -57 306.5 -149.5t107.5 -274.5q0 -123 -61.5 -216t-178.5 -145.5t-276 -52.5q-154 0 -280 46.5t-216 132.5z" />
<glyph unicode="T" d="M82 1257v154h1063l-19 -154h-426v-1257h-178v1257h-440z" />
<glyph unicode="U" d="M147 457v954h179v-960q0 -160 73.5 -240t212.5 -80t214 80t75 240v960h180v-954q0 -141 -58 -251t-163.5 -169.5t-247.5 -59.5q-143 0 -247.5 60.5t-161 169t-56.5 250.5z" />
<glyph unicode="V" d="M51 1411h191l376 -1208l381 1208h179l-471 -1411h-185z" />
<glyph unicode="W" d="M10 1411h178l150 -1216l170 1052h217l162 -1052l168 1216h164l-213 -1411h-234l-162 1065l-164 -1065h-239z" />
<glyph unicode="X" d="M63 0l443 752l-406 659h205l309 -543l312 543h190l-399 -649l448 -762h-204l-351 637l-356 -637h-191z" />
<glyph unicode="Y" d="M47 1411h197l374 -709l379 709h185l-477 -866v-545h-181v543z" />
<glyph unicode="Z" d="M147 0v143l744 1114h-670v154h860v-147l-739 -1110h737l-20 -154h-912z" />
<glyph unicode="[" d="M377 -236v1905h514v-147h-350v-1612h350v-146h-514z" />
<glyph unicode="\" d="M109 1591l135 66l876 -1807l-139 -61z" />
<glyph unicode="]" d="M338 -90h350v1612h-350v147h514v-1905h-514v146z" />
<glyph unicode="^" d="M152 1079l387 641h151l387 -641h-186l-279 486l-276 -486h-184z" />
<glyph unicode="_" d="M102 -221h1024v-152h-1024v152z" />
<glyph unicode="`" d="M377 1464l94 148l377 -244l-55 -94z" />
<glyph unicode="a" d="M141 309q0 166 130 256t374 90h160v88q0 115 -65.5 165t-190.5 50q-123 0 -281 -55l-47 131q190 68 354 68q197 0 300.5 -92t103.5 -256v-518q0 -64 20.5 -93.5t67.5 -44.5l-43 -123q-158 20 -197 154q-57 -74 -144 -113t-194 -39q-162 0 -255 90.5t-93 241.5zM326 311 q0 -205 206 -205q80 0 153 41t120 113v277h-156q-172 0 -247.5 -57.5t-75.5 -168.5z" />
<glyph unicode="b" d="M205 0v1513l172 21v-596q125 164 309 164q207 0 305.5 -147.5t98.5 -413.5q0 -254 -113 -409t-315 -155q-186 0 -293 136l-13 -113h-151zM377 256q43 -66 106.5 -102.5t139.5 -36.5q135 0 207.5 106.5t72.5 317.5q0 209 -64.5 315.5t-191.5 106.5q-82 0 -150.5 -49.5 t-119.5 -122.5v-535z" />
<glyph unicode="c" d="M186 535q0 162 60.5 290.5t175.5 202.5t272 74q209 0 361 -127l-84 -113q-141 94 -279 94q-145 0 -232 -107.5t-87 -313.5q0 -207 87 -308.5t234 -101.5q142 0 281 94l82 -113q-68 -59 -168.5 -94t-194.5 -35q-240 0 -374 151t-134 407z" />
<glyph unicode="d" d="M139 539q0 162 51.5 289.5t146.5 200.5t224 73q178 0 291 -129v561l172 -21v-1513h-152l-16 141q-59 -82 -137 -123t-168 -41q-205 0 -308.5 149.5t-103.5 412.5zM326 539q0 -209 66.5 -316.5t193.5 -107.5q154 0 266 172v536q-45 68 -108.5 104t-137.5 36 q-135 0 -207.5 -106.5t-72.5 -317.5z" />
<glyph unicode="e" d="M162 539q0 162 57 289.5t163.5 200.5t248.5 73q205 0 322.5 -142.5t117.5 -388.5q0 -47 -4 -92h-725q6 -178 93 -268t220 -90q80 0 146.5 23.5t142.5 72.5l80 -115q-76 -59 -173 -92t-196 -33q-233 0 -363 153t-130 409zM342 610h561q-2 170 -73.5 260.5t-196.5 90.5 t-203 -89.5t-88 -261.5z" />
<glyph unicode="f" d="M193 858v137h256v215q0 145 111.5 234.5t281.5 89.5q154 0 293 -57l-56 -129q-102 45 -231 45q-225 0 -225 -179v-219h364l-18 -137h-346v-858h-174v858h-256z" />
<glyph unicode="g" d="M135 -109h156q0 -68 25.5 -107.5t90 -59t183.5 -19.5q174 0 257 45t83 133q0 74 -67.5 114t-174.5 40h-192q-133 0 -203 58.5t-70 146.5q0 51 31 101t88 87q-92 47 -136 120t-44 177q0 109 54 194t151.5 133t224.5 48q184 0 280.5 20.5t210.5 69.5l52 -162 q-61 -20 -133 -25.5t-183 -5.5q188 -86 189 -272q0 -164 -108.5 -265.5t-297.5 -101.5q-96 0 -162 23q-25 -18 -40 -47t-15 -57q0 -92 143 -93h195q106 0 193.5 -37.5t137.5 -105.5t50 -149q0 -158 -134 -243t-380 -85q-250 0 -352.5 77.5t-102.5 247.5zM338 727 q0 -115 64.5 -183.5t191.5 -68.5q115 0 175 66.5t60 187.5q0 246 -239 246q-125 0 -188.5 -66.5t-63.5 -181.5z" />
<glyph unicode="h" d="M205 0v1511l172 19v-600q63 82 155.5 127t190.5 45q303 0 303 -320v-782h-172v780q0 96 -45 140.5t-143 44.5q-84 0 -162 -53.5t-127 -125.5v-786h-172z" />
<glyph unicode="i" d="M248 0v137h332v805h-322v137h494v-942h303v-137h-807zM492 1462q0 53 33.5 87t88.5 34q58 0 92.5 -33.5t34.5 -87.5q0 -53 -34.5 -87t-92.5 -34q-55 0 -88.5 34t-33.5 87z" />
<glyph unicode="j" d="M197 -301q260 43 401 150.5t141 312.5v780h-448v137h620v-907q0 -260 -173 -404.5t-513 -201.5zM627 1462q0 53 34.5 87t90.5 34q55 0 90 -33.5t35 -87.5q0 -53 -35 -87t-90 -34t-90 34t-35 87z" />
<glyph unicode="k" d="M217 0v1513l172 21v-1534h-172zM408 590l479 489h221l-483 -487l540 -592h-227z" />
<glyph unicode="l" d="M123 1376v137h504v-1247q0 -145 178 -145q84 0 180 37l45 -125q-102 -55 -256 -56q-145 0 -232 80t-87 217v1102h-332z" />
<glyph unicode="m" d="M104 0v1079h134l12 -127q49 72 103.5 111t129.5 39q152 0 195 -144q49 70 104.5 107t132.5 37q93 0 151 -64.5t58 -234.5v-803h-157v774q0 113 -14.5 153t-69.5 40q-104 0 -189 -129v-838h-159v774q0 113 -14.5 153t-69.5 40q-104 0 -189 -129v-838h-158z" />
<glyph unicode="n" d="M205 0v1079h147l15 -151q63 82 160.5 128t195.5 46q303 0 303 -320v-782h-172v655q0 121 -13.5 184.5t-52 94.5t-118.5 31q-88 0 -166 -53.5t-127 -127.5v-784h-172z" />
<glyph unicode="o" d="M150 539q0 256 121.5 409.5t344.5 153.5q224 0 343.5 -150.5t119.5 -410.5q0 -254 -121.5 -409t-343.5 -155q-223 0 -343.5 151t-120.5 411zM336 539q0 -213 68.5 -316.5t209.5 -103.5t210 103.5t69 318.5q0 213 -68.5 316.5t-208.5 103.5q-141 0 -210.5 -104.5 t-69.5 -317.5z" />
<glyph unicode="p" d="M205 -434v1513h147l15 -151q59 84 142 129t179 45q391 0 391 -561q0 -256 -106.5 -410t-308.5 -154q-176 0 -287 123v-514zM377 256q43 -63 107.5 -99t140.5 -36q135 0 201.5 103.5t66.5 316.5t-59.5 317.5t-186.5 104.5q-82 0 -150.5 -49.5t-119.5 -122.5v-535z" />
<glyph unicode="q" d="M150 539q0 250 108.5 406.5t302.5 156.5q188 0 301 -141l15 118h147v-1513l-172 20v549q-115 -158 -305 -158q-397 0 -397 562zM336 539q0 -211 61.5 -314.5t186.5 -103.5q84 0 151.5 46t116.5 120v536q-43 66 -107.5 103t-140.5 37q-268 0 -268 -424z" />
<glyph unicode="r" d="M215 0v133h170v813h-170v133h299l33 -256q66 139 157 209t230 70q65 0 151 -23l-24 -366h-139v231h-11q-250 0 -354 -356v-455h219v-133h-561z" />
<glyph unicode="s" d="M152 123l96 113q66 -53 149.5 -85t175.5 -32q123 0 195 47t72 125q0 53 -18.5 87t-74 61.5t-167.5 56.5q-188 47 -278.5 113.5t-90.5 197.5q0 135 112.5 215t297.5 80q225 0 393 -119l-78 -119q-68 47 -141.5 73t-169.5 26q-233 0 -234 -142q0 -49 25.5 -79.5t84 -54 t175.5 -56.5q176 -47 263 -120t87 -212q0 -162 -131 -242t-322 -80q-254 0 -421 146z" />
<glyph unicode="t" d="M162 944v135h248v244l172 20v-264h374l-22 -135h-352v-641q0 -92 49 -137t157 -45q111 0 207 51l68 -117q-55 -37 -134 -57.5t-157 -20.5q-170 0 -266 89.5t-96 234.5v643h-248z" />
<glyph unicode="u" d="M205 295v784h172v-766q0 -104 44 -152t138 -48q86 0 166 49t127 123v794h172v-1079h-147l-15 145q-63 -80 -156.5 -124t-189.5 -44q-154 0 -232.5 82t-78.5 236z" />
<glyph unicode="v" d="M123 1079h184l311 -923l308 923h180l-393 -1079h-199z" />
<glyph unicode="w" d="M37 1079h174l139 -973l172 836h203l162 -836l139 973h166l-186 -1079h-244l-141 791l-152 -791h-238z" />
<glyph unicode="x" d="M115 0l397 569l-350 510h205l249 -401l252 401h199l-350 -501l397 -578h-209l-297 463l-297 -463h-196z" />
<glyph unicode="y" d="M127 1079h182l309 -948l306 948h178l-377 -1085q-63 -186 -174 -297t-309 -131l-25 137q109 18 173.5 56t101 94.5t67.5 146.5h-57z" />
<glyph unicode="z" d="M209 0v131l598 797h-551v151h758v-135l-594 -797h600l-21 -147h-790z" />
<glyph unicode="{" d="M240 647v139q178 0 245.5 42t67.5 133q0 25 -2 38l-43 394q-2 14 -2 41q0 152 116.5 215t301.5 63v-137q-272 0 -256 -164l41 -420q2 -18 2 -53q0 -98 -47.5 -150.5t-145.5 -70.5q100 -18 146.5 -68.5t46.5 -150.5q0 -35 -2 -56l-41 -419q-8 -90 61.5 -127t194.5 -37 v-138q-184 0 -301 63.5t-117 215.5q0 27 2 41l43 389q2 14 2 41q0 90 -67.5 133t-245.5 43z" />
<glyph unicode="|" d="M537 -209v1862h153v-1862h-153z" />
<glyph unicode="}" d="M305 -141q125 0 194.5 36.5t61.5 127.5l-41 419q-4 41 -4 56q0 102 51 151t166 66q-111 20 -163 72.5t-52 152.5q0 33 2 51l41 420q16 164 -256 164v137q184 0 301 -63.5t117 -214.5q0 -27 -2 -41l-43 -394q-2 -10 -2 -30q0 -92 72.5 -137.5t240.5 -45.5v-139 q-170 0 -241.5 -45t-71.5 -139q0 -20 2 -33l43 -389q2 -14 2 -41q0 -152 -117 -215.5t-301 -63.5v138z" />
<glyph unicode="~" d="M88 559q61 119 136 190.5t196 71.5q76 0 129 -31.5t119 -89.5q47 -43 78.5 -63.5t68.5 -20.5q109 0 203 175l123 -66q-61 -115 -136 -186.5t-196 -71.5q-70 0 -120 29.5t-118 87.5q-47 45 -81.5 66.5t-75.5 21.5q-61 0 -109.5 -46t-93.5 -128z" />
<glyph unicode="&#xa0;" />
<glyph unicode="&#xa1;" d="M475 883q0 59 40 99t97 40q58 0 98 -41t40 -98t-40 -96t-98 -39q-57 0 -97 38.5t-40 96.5zM514 -403l25 935h147l27 -935h-199z" />
<glyph unicode="&#xa2;" d="M217 535q0 227 101.5 377.5t293.5 177.5v309h152v-307q139 -16 248 -105l-86 -115q-66 47 -120 65.5t-118 18.5q-137 0 -211 -106.5t-74 -314.5q0 -209 74 -309.5t211 -100.5q63 0 119.5 20.5t120.5 71.5l84 -123q-106 -90 -248 -106v-301h-154v301q-193 25 -293 168 t-100 379z" />
<glyph unicode="&#xa3;" d="M152 674v119h167v262q0 109 47.5 194.5t135.5 135t207 49.5q239 -1 366 -179l-114 -88q-51 63 -110.5 92t-135.5 29q-109 0 -165 -62.5t-56 -185.5v-247h421v-119h-421v-254q0 -96 -27 -164t-100 -109h692l-21 -147h-884v139q76 25 111.5 63t44.5 85t9 125v262h-167z" />
<glyph unicode="&#xa4;" d="M70 260l182 182q-72 115 -72 258t70 252l-180 187l112 110l180 -184q113 68 254 68q150 0 248 -68l183 182l112 -110l-178 -181q74 -111 74 -256q0 -139 -76 -260l180 -178l-112 -110l-185 180q-102 -66 -246 -66q-145 0 -251 66l-183 -182zM354 700q0 -139 67.5 -215.5 t194.5 -76.5t194 76.5t67 215.5t-67 217t-194 78t-194.5 -77.5t-67.5 -217.5z" />
<glyph unicode="&#xa5;" d="M80 1411h196l340 -649h9l342 649h182l-397 -704h243v-119h-290v-176h290v-121h-290v-291h-181v291h-286v121h286v176h-286v119h237z" />
<glyph unicode="&#xa6;" d="M537 -209v727h153v-727h-153zM537 926v727h153v-727h-153z" />
<glyph unicode="&#xa7;" d="M217 655q0 78 46 144.5t120 111.5q-121 92 -121 224q0 135 111.5 217t275.5 82q107 0 188 -29t154 -82l-82 -117q-66 45 -127 65.5t-145 20.5q-88 0 -141.5 -39t-53.5 -104q0 -49 20.5 -80t74 -58.5t159.5 -64.5q170 -55 242 -124.5t72 -186.5q0 -80 -45 -146.5 t-119 -111.5q121 -90 121 -221q0 -137 -109.5 -217t-286.5 -80q-201 0 -350 110l82 117q63 -45 129 -66.5t150 -21.5q88 0 146 40t58 105q0 47 -20.5 79t-73.5 58.5t-160 61.5q-170 57 -242.5 126t-72.5 187zM389 678q0 -57 25.5 -90t83 -58.5t202.5 -78.5q8 -2 17.5 -6.5 t21.5 -8.5q47 39 74 85t27 91q0 57 -28 90t-89 59.5t-234 90.5q-49 -37 -74.5 -84t-25.5 -90z" />
<glyph unicode="&#xa8;" d="M289 1436q0 49 32.5 80.5t79.5 31.5t79 -31.5t32 -80.5q0 -47 -31.5 -78t-79.5 -31q-47 0 -79.5 32t-32.5 77zM715 1436q0 49 31.5 80.5t78.5 31.5t80 -31.5t33 -80.5q0 -45 -33 -77t-80 -32t-78.5 31t-31.5 78z" />
<glyph unicode="&#xa9;" d="M59 891q0 178 67 323.5t192.5 230.5t297.5 85t297 -85t190.5 -230.5t65.5 -323.5t-65.5 -322.5t-190.5 -228.5t-297 -84t-297.5 84t-192.5 229.5t-67 321.5zM174 891q0 -152 50 -271.5t149.5 -189.5t242.5 -70t242.5 70t149 189.5t49.5 271.5t-49.5 273.5t-148.5 192 t-243 70.5q-143 0 -242.5 -70.5t-149.5 -192.5t-50 -273zM291 893q0 123 45 210t120.5 132t166.5 45q77 0 130.5 -18.5t110.5 -61.5l-73 -96q-80 61 -160 61q-86 0 -139.5 -66.5t-53.5 -205.5q0 -131 51.5 -197.5t141.5 -66.5q98 0 176 71l67 -98q-109 -96 -249 -96 q-150 0 -242 102.5t-92 284.5z" />
<glyph unicode="&#xaa;" d="M209 901q0 135 116.5 208t327.5 73h121v59q0 162 -203 162q-113 0 -249 -51l-48 121q164 61 320 61q168 0 254 -75t86 -212v-403q0 -45 16.5 -69.5t53.5 -35.5l-39 -110q-66 8 -108 36.5t-62 84.5q-49 -57 -122 -89t-153 -32q-139 0 -225 74.5t-86 197.5zM217 0v154h803 v-154h-803zM383 909q0 -78 45 -117.5t131 -39.5q61 0 117.5 30.5t97.5 83.5v199h-119q-272 0 -272 -156z" />
<glyph unicode="&#xab;" d="M168 539v125l360 426l105 -66l-279 -422l279 -424l-105 -65zM592 539v125l362 426l105 -66l-279 -422l279 -424l-105 -65z" />
<glyph unicode="&#xac;" d="M238 565v148h753v-439h-157v291h-596z" />
<glyph unicode="&#xad;" d="M295 567v148h639v-148h-639z" />
<glyph unicode="&#xae;" d="M94 1008q0 141 69.5 261t189.5 190.5t261 70.5q142 0 260.5 -70.5t188.5 -190.5t70 -261t-70 -260t-188.5 -189t-260.5 -70q-141 0 -261 70t-189.5 188.5t-69.5 260.5zM203 1008q0 -117 54 -213.5t148.5 -152.5t208.5 -56q115 0 209.5 56t147.5 152.5t53 213.5t-53 214 t-147.5 154.5t-209.5 57.5q-114 0 -208.5 -57.5t-148.5 -156t-54 -212.5zM412 725v578h174q250 -1 250 -175q0 -61 -37 -102t-101 -59l176 -242h-135l-153 223h-60v-223h-114zM526 1036h66q125 0 125 92q0 84 -129 84h-62v-176z" />
<glyph unicode="&#xaf;" d="M338 1384v132h551v-132h-551z" />
<glyph unicode="&#xb0;" d="M133 1214q0 98 47 171t124 111t163 38t163 -38t123 -110.5t46 -173.5q0 -98 -46 -170.5t-123 -110.5t-163 -38q-88 0 -164 38t-123 111.5t-47 171.5zM285 1214q0 -96 53 -148t129 -52t129 51t53 147t-53 147.5t-129 51.5t-129 -50t-53 -147z" />
<glyph unicode="&#xb1;" d="M238 0v150h753v-150h-753zM238 651v146h294v305h164v-305h295v-146h-295v-317h-164v317h-294z" />
<glyph unicode="&#xb2;" d="M315 1171q61 70 139 107t164 37q127 0 200 -59.5t73 -157.5q0 -66 -33 -115t-105.5 -97t-207.5 -116h366l-18 -125h-567v109q193 117 267.5 166t108 87.5t33.5 83.5q0 47 -31.5 73t-89.5 26q-113 0 -194 -99z" />
<glyph unicode="&#xb3;" d="M301 751l94 80q90 -82 221 -82q78 0 117 25t39 70q0 51 -37 73.5t-110 22.5h-95l15 88h71q131 0 132 84q0 90 -127 90q-111 0 -213 -78l-82 84q131 106 305 107q123 0 194.5 -49.5t71.5 -133.5q0 -57 -33 -89.5t-112 -47.5q90 -14 132 -49t42 -106q0 -94 -84 -150.5 t-232 -56.5q-88 0 -169 28.5t-140 89.5z" />
<glyph unicode="&#xb4;" d="M383 1403l403 229l78 -147l-428 -174z" />
<glyph unicode="&#xb5;" d="M180 -434v1513h172v-606q0 -123 12.5 -193.5t52.5 -110.5t118 -40q90 0 161.5 45t122.5 117v788h172v-735q0 -160 56 -344l-162 -25q-14 27 -29.5 80.5t-19.5 94.5q-47 -78 -127 -126.5t-162 -48.5t-127 24t-86 81q18 -133 18 -180v-314z" />
<glyph unicode="&#xb6;" d="M88 997q0 119 59.5 212.5t177 147.5t283.5 54h531v-1823l-158 -22v1702h-229v-1680l-158 -22v1026q-162 0 -276.5 53t-172 145.5t-57.5 206.5z" />
<glyph unicode="&#xb7;" d="M432 700q0 76 52.5 127.5t127.5 51.5q78 0 129.5 -51.5t51.5 -127.5q0 -78 -51.5 -130t-129.5 -52q-76 0 -128 52.5t-52 129.5z" />
<glyph unicode="&#xb8;" d="M381 -438l55 98q61 -33 137 -33q123 0 123 84q0 53 -43 71.5t-133 18.5l17 232h118v-150q94 -8 142.5 -56t48.5 -114q0 -96 -73 -148t-177 -52q-61 0 -117.5 13t-97.5 36z" />
<glyph unicode="&#xb9;" d="M478 1128l297 174h116v-657h-145v489l-197 -106z" />
<glyph unicode="&#xba;" d="M197 1083q0 133 52 234.5t146 159t219 57.5q193 0 304.5 -122t111.5 -329q0 -133 -51 -236.5t-145.5 -160.5t-219.5 -57q-190 0 -303.5 124t-113.5 330zM213 0v154h805v-154h-805zM369 1083q0 -162 64.5 -241.5t180.5 -79.5q115 0 179.5 80t64.5 241q0 160 -64.5 240 t-179.5 80q-114 0 -179.5 -80t-65.5 -240z" />
<glyph unicode="&#xbb;" d="M168 178l276 424l-276 422l104 66l361 -426v-125l-361 -426zM592 178l276 424l-276 422l104 66l363 -426v-125l-363 -426z" />
<glyph unicode="&#xbc;" d="M-4 1237l297 174h116v-657h-145v489l-197 -108zM28 487l1096 525l60 -111l-1094 -524zM602 115v98l279 465l124 -51l-235 -391h199l12 176h137v-176h113v-121h-113v-115h-149v115h-367z" />
<glyph unicode="&#xbd;" d="M-10 1237l297 174h116v-657h-145v489l-197 -108zM20 487l1096 525l60 -111l-1094 -524zM641 526q61 70 139 107t164 37q127 0 200 -59.5t73 -157.5q0 -66 -33 -115t-105.5 -97t-207.5 -116h366l-18 -125h-567v109q193 117 267.5 166t108 87.5t33.5 83.5q0 47 -31.5 73 t-89.5 26q-113 0 -194 -99z" />
<glyph unicode="&#xbe;" d="M-6 860l94 78q47 -41 104.5 -61.5t116.5 -20.5q78 0 117 25.5t39 70.5q0 51 -37 74t-110 23h-95l15 86h71q131 0 132 84q0 90 -127 90q-115 0 -213 -78l-82 86q131 106 305 106q123 0 194.5 -49t71.5 -133q0 -57 -33 -90t-112 -47q90 -14 132 -49t42 -107 q0 -94 -84 -150.5t-232 -56.5q-88 0 -169 29t-140 90zM49 487l1096 525l60 -111l-1094 -524zM606 115v98l279 465l124 -51l-235 -391h199l12 176h137v-176h113v-121h-113v-115h-149v115h-367z" />
<glyph unicode="&#xbf;" d="M215 -117q0 78 25.5 132.5t63.5 90t102 80.5q88 66 133 123.5t45 153.5v69h174v-77q0 -84 -29 -146.5t-71 -102.5t-107 -89q-80 -59 -119 -106.5t-39 -116.5q0 -86 67.5 -135.5t174.5 -49.5q78 0 154.5 38t136.5 114l123 -92q-172 -203 -431 -203q-121 0 -213 45 t-141 117.5t-49 154.5zM526 883q0 59 40 99t98 40q57 0 97 -41t40 -98t-40 -96t-97 -39t-97.5 38.5t-40.5 96.5z" />
<glyph unicode="&#xc0;" d="M41 0l461 1411h225l459 -1411h-185l-112 360h-559l-113 -360h-176zM377 508h465l-232 752zM377 1714l94 148l379 -222l-53 -94z" />
<glyph unicode="&#xc1;" d="M41 0l461 1411h225l459 -1411h-185l-112 360h-559l-113 -360h-176zM377 508h465l-232 752zM379 1640l405 215l76 -147l-436 -162z" />
<glyph unicode="&#xc2;" d="M41 0l461 1411h225l459 -1411h-185l-112 360h-559l-113 -360h-176zM281 1645l276 219h117l274 -219l-76 -89l-258 166l-256 -166zM377 508h465l-232 752z" />
<glyph unicode="&#xc3;" d="M41 0l461 1411h225l459 -1411h-185l-112 360h-559l-113 -360h-176zM276 1653q84 172 220 172q41 0 72.5 -14.5t68.5 -41.5q33 -23 53.5 -33t42.5 -10q31 0 55.5 21.5t53.5 69.5l108 -56q-78 -168 -217 -168q-39 0 -70.5 14.5t-70.5 41.5q-31 23 -53.5 33t-44.5 10 q-33 0 -57.5 -22.5t-51.5 -72.5zM377 508h465l-232 752z" />
<glyph unicode="&#xc4;" d="M41 0l461 1411h225l459 -1411h-185l-112 360h-559l-113 -360h-176zM289 1681q0 47 31.5 79t80.5 32q47 0 79 -31.5t32 -79.5q0 -47 -31.5 -77.5t-79.5 -30.5q-49 0 -80.5 30.5t-31.5 77.5zM377 508h465l-232 752zM713 1681q0 47 31.5 79t78.5 32t80 -31.5t33 -79.5 q0 -47 -33 -77.5t-80 -30.5t-78.5 30.5t-31.5 77.5z" />
<glyph unicode="&#xc5;" d="M41 0l461 1411h225l459 -1411h-185l-112 360h-559l-113 -360h-176zM377 508h465l-232 752zM385 1720q0 90 65.5 150.5t163.5 60.5q99 0 162.5 -60.5t63.5 -150.5q0 -88 -64.5 -148.5t-161.5 -60.5q-98 0 -163.5 60.5t-65.5 148.5zM502 1720q0 -53 30.5 -84.5t81.5 -31.5 t80 31.5t29 84.5t-28.5 85t-80.5 32q-51 0 -81.5 -31.5t-30.5 -85.5z" />
<glyph unicode="&#xc6;" d="M-25 0l414 1411h770l-20 -145h-484l105 -478h381v-145h-355l107 -498h350v-145h-493l-74 358h-418l-100 -358h-183zM303 508h340l-149 762z" />
<glyph unicode="&#xc7;" d="M129 707q0 229 81 394t219 249t304 84q131 0 225.5 -34t184.5 -104l-101 -116q-125 104 -297 104q-190 0 -310 -138t-120 -439q0 -299 117 -438.5t311 -139.5q106 0 182 30.5t146 86.5l92 -115q-152 -147 -405 -154v-94q94 -8 142 -56t48 -114q0 -96 -72.5 -148 t-177.5 -52q-61 0 -117.5 13t-97.5 36l56 98q61 -33 137 -33q123 0 123 84q0 53 -43 71.5t-133 18.5l12 185q-147 25 -262 116t-179.5 244.5t-64.5 360.5z" />
<glyph unicode="&#xc8;" d="M258 0v1411h801l-21 -147h-604v-476h524v-145h-524v-500h643v-143h-819zM422 1714l94 148l379 -222l-53 -94z" />
<glyph unicode="&#xc9;" d="M258 0v1411h801l-21 -147h-604v-476h524v-145h-524v-500h643v-143h-819zM422 1640l405 215l76 -147l-436 -162z" />
<glyph unicode="&#xca;" d="M258 0v1411h801l-21 -147h-604v-476h524v-145h-524v-500h643v-143h-819zM324 1645l276 219h117l274 -219l-76 -89l-258 166l-256 -166z" />
<glyph unicode="&#xcb;" d="M258 0v1411h801l-21 -147h-604v-476h524v-145h-524v-500h643v-143h-819zM334 1681q0 47 31.5 79t80.5 32q47 0 79 -31.5t32 -79.5q0 -47 -31.5 -77.5t-79.5 -30.5q-49 0 -80.5 30.5t-31.5 77.5zM758 1681q0 47 31.5 79t78.5 32t80 -31.5t33 -79.5q0 -47 -33 -77.5 t-80 -30.5t-78.5 30.5t-31.5 77.5z" />
<glyph unicode="&#xcc;" d="M211 0v141h313v1127h-313v143h807v-143h-313v-1127h313v-141h-807zM379 1714l94 148l379 -222l-53 -94z" />
<glyph unicode="&#xcd;" d="M211 0v141h313v1127h-313v143h807v-143h-313v-1127h313v-141h-807zM379 1640l405 215l76 -147l-436 -162z" />
<glyph unicode="&#xce;" d="M211 0v141h313v1127h-313v143h807v-143h-313v-1127h313v-141h-807zM281 1645l276 219h117l274 -219l-76 -89l-258 166l-256 -166z" />
<glyph unicode="&#xcf;" d="M211 0v141h313v1127h-313v143h807v-143h-313v-1127h313v-141h-807zM291 1681q0 47 31.5 79t80.5 32q47 0 79 -31.5t32 -79.5q0 -47 -31.5 -77.5t-79.5 -30.5q-49 0 -80.5 30.5t-31.5 77.5zM715 1681q0 47 31.5 79t78.5 32t80 -31.5t33 -79.5q0 -47 -33 -77.5t-80 -30.5 t-78.5 30.5t-31.5 77.5z" />
<glyph unicode="&#xd0;" d="M41 655v136h149v620h302q294 0 476.5 -149.5t182.5 -548.5q0 -401 -183.5 -557t-453.5 -156h-324v655h-149zM369 143h168q182 0 304 126t122 444q0 330 -121 441.5t-307 111.5h-166v-475h323v-136h-323v-512z" />
<glyph unicode="&#xd1;" d="M170 0v1411h242l506 -1245l-5 74q-20 252 -20 465v706h166v-1411h-250l-498 1239q0 -14 12.5 -178t12.5 -354v-707h-166zM274 1653q84 172 220 172q41 0 72.5 -14.5t68.5 -41.5q33 -23 53.5 -33t42.5 -10q31 0 55.5 21.5t53.5 69.5l108 -56q-78 -168 -217 -168 q-39 0 -70.5 14.5t-70.5 41.5q-31 23 -53.5 33t-44.5 10q-33 0 -57.5 -22.5t-51.5 -72.5z" />
<glyph unicode="&#xd2;" d="M96 702q0 215 59.5 381t176.5 258.5t282 92.5q250 0 384.5 -198t134.5 -531q0 -330 -134.5 -529t-384.5 -199q-252 0 -385 195t-133 530zM281 702q0 -287 80.5 -431t252.5 -144q174 0 254 144.5t80 433.5q0 288 -80 433.5t-254 145.5t-253.5 -146.5t-79.5 -435.5z M379 1714l94 148l379 -222l-53 -94z" />
<glyph unicode="&#xd3;" d="M96 702q0 215 59.5 381t176.5 258.5t282 92.5q250 0 384.5 -198t134.5 -531q0 -330 -134.5 -529t-384.5 -199q-252 0 -385 195t-133 530zM281 702q0 -287 80.5 -431t252.5 -144q174 0 254 144.5t80 433.5q0 288 -80 433.5t-254 145.5t-253.5 -146.5t-79.5 -435.5z M379 1640l405 215l76 -147l-436 -162z" />
<glyph unicode="&#xd4;" d="M96 702q0 215 59.5 381t176.5 258.5t282 92.5q250 0 384.5 -198t134.5 -531q0 -330 -134.5 -529t-384.5 -199q-252 0 -385 195t-133 530zM281 702q0 -287 80.5 -431t252.5 -144q174 0 254 144.5t80 433.5q0 288 -80 433.5t-254 145.5t-253.5 -146.5t-79.5 -435.5z M281 1645l276 219h117l274 -219l-76 -89l-258 166l-256 -166z" />
<glyph unicode="&#xd5;" d="M96 702q0 215 59.5 381t176.5 258.5t282 92.5q250 0 384.5 -198t134.5 -531q0 -330 -134.5 -529t-384.5 -199q-252 0 -385 195t-133 530zM278 1653q84 172 220 172q41 0 72.5 -14.5t68.5 -41.5q33 -23 53.5 -33t42.5 -10q31 0 55.5 21.5t53.5 69.5l108 -56 q-78 -168 -217 -168q-39 0 -70.5 14.5t-70.5 41.5q-31 23 -53.5 33t-44.5 10q-33 0 -57.5 -22.5t-51.5 -72.5zM281 702q0 -287 80.5 -431t252.5 -144q174 0 254 144.5t80 433.5q0 288 -80 433.5t-254 145.5t-253.5 -146.5t-79.5 -435.5z" />
<glyph unicode="&#xd6;" d="M96 702q0 215 59.5 381t176.5 258.5t282 92.5q250 0 384.5 -198t134.5 -531q0 -330 -134.5 -529t-384.5 -199q-252 0 -385 195t-133 530zM281 702q0 -287 80.5 -431t252.5 -144q174 0 254 144.5t80 433.5q0 288 -80 433.5t-254 145.5t-253.5 -146.5t-79.5 -435.5z M291 1681q0 47 31.5 79t80.5 32q47 0 79 -31.5t32 -79.5q0 -47 -31.5 -77.5t-79.5 -30.5q-49 0 -80.5 30.5t-31.5 77.5zM715 1681q0 47 31.5 79t78.5 32t80 -31.5t33 -79.5q0 -47 -33 -77.5t-80 -30.5t-78.5 30.5t-31.5 77.5z" />
<glyph unicode="&#xd7;" d="M256 377l252 252l-252 252l106 108l252 -254l252 254l107 -108l-252 -252l252 -252l-107 -107l-252 252l-252 -252z" />
<glyph unicode="&#xd8;" d="M96 702q0 215 59.5 381t176.5 258.5t282 92.5q68 0 134 -17l65 228l154 -41l-78 -254q121 -86 182.5 -253t61.5 -392q0 -330 -134.5 -529t-384.5 -199q-74 0 -129 15l-67 -217l-154 39l78 243q-121 86 -183.5 252t-62.5 393zM283 702q0 -194 29.5 -316t93.5 -185 l309 1071q-47 12 -101 12q-174 0 -252.5 -146.5t-78.5 -435.5zM514 139q47 -12 100 -12q174 0 253 144.5t79 433.5q0 199 -29.5 320.5t-93.5 184.5z" />
<glyph unicode="&#xd9;" d="M147 457v954h179v-960q0 -160 73.5 -240t212.5 -80t214 80t75 240v960h180v-954q0 -141 -58 -251t-163.5 -169.5t-247.5 -59.5q-143 0 -247.5 60.5t-161 169t-56.5 250.5zM379 1714l94 148l379 -222l-53 -94z" />
<glyph unicode="&#xda;" d="M147 457v954h179v-960q0 -160 73.5 -240t212.5 -80t214 80t75 240v960h180v-954q0 -141 -58 -251t-163.5 -169.5t-247.5 -59.5q-143 0 -247.5 60.5t-161 169t-56.5 250.5zM379 1640l405 215l76 -147l-436 -162z" />
<glyph unicode="&#xdb;" d="M147 457v954h179v-960q0 -160 73.5 -240t212.5 -80t214 80t75 240v960h180v-954q0 -141 -58 -251t-163.5 -169.5t-247.5 -59.5q-143 0 -247.5 60.5t-161 169t-56.5 250.5zM281 1645l276 219h117l274 -219l-76 -89l-258 166l-256 -166z" />
<glyph unicode="&#xdc;" d="M147 457v954h179v-960q0 -160 73.5 -240t212.5 -80t214 80t75 240v960h180v-954q0 -141 -58 -251t-163.5 -169.5t-247.5 -59.5q-143 0 -247.5 60.5t-161 169t-56.5 250.5zM291 1681q0 47 31.5 79t80.5 32q47 0 79 -31.5t32 -79.5q0 -47 -31.5 -77.5t-79.5 -30.5 q-49 0 -80.5 30.5t-31.5 77.5zM715 1681q0 47 31.5 79t78.5 32t80 -31.5t33 -79.5q0 -47 -33 -77.5t-80 -30.5t-78.5 30.5t-31.5 77.5z" />
<glyph unicode="&#xdd;" d="M47 1411h197l374 -709l379 709h185l-477 -866v-545h-181v543zM385 1640l405 215l76 -147l-436 -162z" />
<glyph unicode="&#xde;" d="M219 0v1411h178v-240h201q260 0 400.5 -110.5t140.5 -333.5q0 -238 -145.5 -351.5t-395.5 -113.5h-201v-262h-178zM397 406h224q160 0 244.5 70.5t84.5 246.5q0 158 -87 232.5t-242 74.5h-224v-624z" />
<glyph unicode="&#xdf;" d="M197 0v1092q0 215 108.5 328.5t302.5 113.5q158 0 257.5 -82t99.5 -213q0 -74 -35 -121t-101 -102q-51 -43 -74.5 -70.5t-23.5 -66.5q0 -51 37 -87t121 -90q80 -51 130 -93t87 -108.5t37 -158.5q0 -115 -51.5 -198t-138.5 -125t-191 -42q-156 0 -266 70l71 119 q37 -23 85 -36t93 -13q104 0 163 54t59 163q0 88 -50.5 141t-150.5 117q-68 43 -109 75.5t-68.5 80t-27.5 110.5q0 68 34 113t95 94q55 43 82 77t27 81q0 68 -46 121t-147 53q-119 0 -178 -70t-59 -223v-1104h-172z" />
<glyph unicode="&#xe0;" d="M141 309q0 166 130 256t374 90h160v88q0 115 -65.5 165t-190.5 50q-123 0 -281 -55l-47 131q190 68 354 68q197 0 300.5 -92t103.5 -256v-518q0 -64 20.5 -93.5t67.5 -44.5l-43 -123q-158 20 -197 154q-57 -74 -144 -113t-194 -39q-162 0 -255 90.5t-93 241.5zM326 311 q0 -205 206 -205q80 0 153 41t120 113v277h-156q-172 0 -247.5 -57.5t-75.5 -168.5zM361 1464l94 148l377 -244l-55 -94z" />
<glyph unicode="&#xe1;" d="M141 309q0 166 130 256t374 90h160v88q0 115 -65.5 165t-190.5 50q-123 0 -281 -55l-47 131q190 68 354 68q197 0 300.5 -92t103.5 -256v-518q0 -64 20.5 -93.5t67.5 -44.5l-43 -123q-158 20 -197 154q-57 -74 -144 -113t-194 -39q-162 0 -255 90.5t-93 241.5zM326 311 q0 -205 206 -205q80 0 153 41t120 113v277h-156q-172 0 -247.5 -57.5t-75.5 -168.5zM367 1403l403 229l78 -147l-428 -174z" />
<glyph unicode="&#xe2;" d="M141 309q0 166 130 256t374 90h160v88q0 115 -65.5 165t-190.5 50q-123 0 -281 -55l-47 131q190 68 354 68q197 0 300.5 -92t103.5 -256v-518q0 -64 20.5 -93.5t67.5 -44.5l-43 -123q-158 20 -197 154q-57 -74 -144 -113t-194 -39q-162 0 -255 90.5t-93 241.5zM265 1372 l276 244h117l274 -244l-78 -84l-254 187l-254 -187zM326 311q0 -205 206 -205q80 0 153 41t120 113v277h-156q-172 0 -247.5 -57.5t-75.5 -168.5z" />
<glyph unicode="&#xe3;" d="M141 309q0 166 130 256t374 90h160v88q0 115 -65.5 165t-190.5 50q-123 0 -281 -55l-47 131q190 68 354 68q197 0 300.5 -92t103.5 -256v-518q0 -64 20.5 -93.5t67.5 -44.5l-43 -123q-158 20 -197 154q-57 -74 -144 -113t-194 -39q-162 0 -255 90.5t-93 241.5zM263 1407 q39 80 93 127t124 47q43 0 73.5 -15.5t69.5 -41.5q35 -25 53.5 -34t40.5 -9q31 0 55.5 21.5t53.5 70.5l110 -55q-39 -84 -95 -126t-124 -42q-39 0 -70.5 14t-70.5 41q-31 23 -52.5 33t-43.5 10q-33 0 -57.5 -22.5t-51.5 -71.5zM326 311q0 -205 206 -205q80 0 153 41t120 113 v277h-156q-172 0 -247.5 -57.5t-75.5 -168.5z" />
<glyph unicode="&#xe4;" d="M141 309q0 166 130 256t374 90h160v88q0 115 -65.5 165t-190.5 50q-123 0 -281 -55l-47 131q190 68 354 68q197 0 300.5 -92t103.5 -256v-518q0 -64 20.5 -93.5t67.5 -44.5l-43 -123q-158 20 -197 154q-57 -74 -144 -113t-194 -39q-162 0 -255 90.5t-93 241.5zM273 1436 q0 49 32.5 80.5t79.5 31.5t79 -31.5t32 -80.5q0 -47 -31.5 -78t-79.5 -31q-47 0 -79.5 32t-32.5 77zM326 311q0 -205 206 -205q80 0 153 41t120 113v277h-156q-172 0 -247.5 -57.5t-75.5 -168.5zM699 1436q0 49 31.5 80.5t78.5 31.5t80 -31.5t33 -80.5q0 -45 -33 -77 t-80 -32t-78.5 31t-31.5 78z" />
<glyph unicode="&#xe5;" d="M141 309q0 166 130 256t374 90h160v88q0 115 -65.5 165t-190.5 50q-123 0 -281 -55l-47 131q190 68 354 68q197 0 300.5 -92t103.5 -256v-518q0 -64 20.5 -93.5t67.5 -44.5l-43 -123q-158 20 -197 154q-57 -74 -144 -113t-194 -39q-162 0 -255 90.5t-93 241.5zM326 311 q0 -205 206 -205q80 0 153 41t120 113v277h-156q-172 0 -247.5 -57.5t-75.5 -168.5zM371 1477q0 88 64.5 149.5t162.5 61.5q99 0 163.5 -61.5t64.5 -149.5t-64.5 -148.5t-163.5 -60.5q-98 0 -162.5 60.5t-64.5 148.5zM488 1477q0 -55 29.5 -86t80.5 -31q53 0 82 30.5 t29 86.5q0 53 -29.5 83.5t-81.5 30.5q-51 0 -80.5 -30.5t-29.5 -83.5z" />
<glyph unicode="&#xe6;" d="M-12 309q0 170 111.5 258t326.5 88h94v88q0 215 -186 215q-53 0 -98.5 -12t-116.5 -43l-45 129q145 70 276 70q115 0 181.5 -46t101.5 -134q29 84 95.5 132t162.5 48q178 0 265 -138.5t87 -392.5q0 -45 -4 -94h-551q14 -186 68.5 -271t163.5 -85q55 0 101 19.5t101 62.5 l80 -119q-68 -53 -135.5 -80t-151.5 -27q-104 0 -177.5 46.5t-125.5 136.5q-72 -98 -142.5 -140.5t-170.5 -42.5q-143 0 -227 90.5t-84 241.5zM174 319q0 -102 41 -156t111 -54q63 0 113 47t110 151q-29 92 -29 230h-86q-141 0 -200.5 -56.5t-59.5 -161.5zM688 612h387 q-4 176 -47 261t-143 85q-94 0 -139.5 -77.5t-57.5 -268.5z" />
<glyph unicode="&#xe7;" d="M186 535q0 162 60.5 290.5t175.5 202.5t272 74q209 0 361 -127l-84 -113q-141 94 -279 94q-145 0 -232 -107.5t-87 -313.5q0 -207 87 -308.5t234 -101.5q141 0 281 94l82 -113q-59 -53 -146.5 -86.5t-175.5 -42.5v-94q94 -8 142.5 -56t48.5 -114q0 -96 -73 -148t-177 -52 q-61 0 -117.5 13t-97.5 36l55 98q61 -33 137 -33q123 0 123 84q0 53 -43 71.5t-133 18.5l12 181q-203 27 -314.5 173t-111.5 380z" />
<glyph unicode="&#xe8;" d="M162 539q0 162 57 289.5t163.5 200.5t248.5 73q205 0 322.5 -142.5t117.5 -388.5q0 -47 -4 -92h-725q6 -178 93 -268t220 -90q80 0 146.5 23.5t142.5 72.5l80 -115q-76 -59 -173 -92t-196 -33q-233 0 -363 153t-130 409zM342 610h561q-2 170 -73.5 260.5t-196.5 90.5 t-203 -89.5t-88 -261.5zM397 1464l94 148l377 -244l-55 -94z" />
<glyph unicode="&#xe9;" d="M162 539q0 162 57 289.5t163.5 200.5t248.5 73q205 0 322.5 -142.5t117.5 -388.5q0 -47 -4 -92h-725q6 -178 93 -268t220 -90q80 0 146.5 23.5t142.5 72.5l80 -115q-76 -59 -173 -92t-196 -33q-233 0 -363 153t-130 409zM342 610h561q-2 170 -73.5 260.5t-196.5 90.5 t-203 -89.5t-88 -261.5zM403 1403l403 229l78 -147l-428 -174z" />
<glyph unicode="&#xea;" d="M162 539q0 162 57 289.5t163.5 200.5t248.5 73q205 0 322.5 -142.5t117.5 -388.5q0 -47 -4 -92h-725q6 -178 93 -268t220 -90q80 0 146.5 23.5t142.5 72.5l80 -115q-76 -59 -173 -92t-196 -33q-233 0 -363 153t-130 409zM301 1372l276 244h117l274 -244l-78 -84l-254 187 l-254 -187zM342 610h561q-2 170 -73.5 260.5t-196.5 90.5t-203 -89.5t-88 -261.5z" />
<glyph unicode="&#xeb;" d="M162 539q0 162 57 289.5t163.5 200.5t248.5 73q205 0 322.5 -142.5t117.5 -388.5q0 -47 -4 -92h-725q6 -178 93 -268t220 -90q80 0 146.5 23.5t142.5 72.5l80 -115q-76 -59 -173 -92t-196 -33q-233 0 -363 153t-130 409zM309 1436q0 49 32.5 80.5t79.5 31.5t79 -31.5 t32 -80.5q0 -47 -31.5 -78t-79.5 -31q-47 0 -79.5 32t-32.5 77zM342 610h561q-2 170 -73.5 260.5t-196.5 90.5t-203 -89.5t-88 -261.5zM735 1436q0 49 31.5 80.5t78.5 31.5t80 -31.5t33 -80.5q0 -45 -33 -77t-80 -32t-78.5 31t-31.5 78z" />
<glyph unicode="&#xec;" d="M248 0v137h332v805h-322v137h494v-942h303v-137h-807zM379 1464l94 148l377 -244l-55 -94z" />
<glyph unicode="&#xed;" d="M248 0v137h332v805h-322v137h494v-942h303v-137h-807zM385 1403l403 229l78 -147l-428 -174z" />
<glyph unicode="&#xee;" d="M248 0v137h332v805h-322v137h494v-942h303v-137h-807zM283 1372l276 244h117l274 -244l-78 -84l-254 187l-254 -187z" />
<glyph unicode="&#xef;" d="M248 0v137h332v805h-322v137h494v-942h303v-137h-807zM291 1436q0 49 32.5 80.5t79.5 31.5t79 -31.5t32 -80.5q0 -47 -31.5 -78t-79.5 -31q-47 0 -79.5 32t-32.5 77zM717 1436q0 49 31.5 80.5t78.5 31.5t80 -31.5t33 -80.5q0 -45 -33 -77t-80 -32t-78.5 31t-31.5 78z" />
<glyph unicode="&#xf0;" d="M137 481q0 147 59.5 262t160 178.5t216.5 63.5q199 0 322 -141q-27 129 -95.5 233.5t-168.5 175.5l-162 -163l-121 61l164 174q-100 47 -240 74l39 135q188 -39 305 -100l144 149l104 -90l-127 -131q182 -125 267.5 -325.5t85.5 -495.5q0 -172 -60.5 -299t-170 -196 t-255.5 -69q-131 0 -237.5 59.5t-168 173.5t-61.5 271zM313 489q0 -178 79 -275t210 -97q145 0 230.5 111.5t85.5 318.5q-1 51 -9 133q-51 82 -133 125t-182 43q-121 0 -201 -91t-80 -268z" />
<glyph unicode="&#xf1;" d="M205 0v1079h147l15 -151q63 82 160.5 128t195.5 46q303 0 303 -320v-782h-172v655q0 121 -13.5 184.5t-52 94.5t-118.5 31q-88 0 -166 -53.5t-127 -127.5v-784h-172zM279 1407q39 80 93 127t124 47q43 0 73.5 -15.5t69.5 -41.5q35 -25 53.5 -34t40.5 -9q31 0 55.5 21.5 t53.5 70.5l110 -55q-39 -84 -95 -126t-124 -42q-39 0 -70.5 14t-70.5 41q-31 23 -52.5 33t-43.5 10q-33 0 -57.5 -22.5t-51.5 -71.5z" />
<glyph unicode="&#xf2;" d="M150 539q0 256 121.5 409.5t344.5 153.5q224 0 343.5 -150.5t119.5 -410.5q0 -254 -121.5 -409t-343.5 -155q-223 0 -343.5 151t-120.5 411zM336 539q0 -213 68.5 -316.5t209.5 -103.5t210 103.5t69 318.5q0 213 -68.5 316.5t-208.5 103.5q-141 0 -210.5 -104.5 t-69.5 -317.5zM377 1464l94 148l377 -244l-55 -94z" />
<glyph unicode="&#xf3;" d="M150 539q0 256 121.5 409.5t344.5 153.5q224 0 343.5 -150.5t119.5 -410.5q0 -254 -121.5 -409t-343.5 -155q-223 0 -343.5 151t-120.5 411zM336 539q0 -213 68.5 -316.5t209.5 -103.5t210 103.5t69 318.5q0 213 -68.5 316.5t-208.5 103.5q-141 0 -210.5 -104.5 t-69.5 -317.5zM383 1403l403 229l78 -147l-428 -174z" />
<glyph unicode="&#xf4;" d="M150 539q0 256 121.5 409.5t344.5 153.5q224 0 343.5 -150.5t119.5 -410.5q0 -254 -121.5 -409t-343.5 -155q-223 0 -343.5 151t-120.5 411zM281 1372l276 244h117l274 -244l-78 -84l-254 187l-254 -187zM336 539q0 -213 68.5 -316.5t209.5 -103.5t210 103.5t69 318.5 q0 213 -68.5 316.5t-208.5 103.5q-141 0 -210.5 -104.5t-69.5 -317.5z" />
<glyph unicode="&#xf5;" d="M150 539q0 256 121.5 409.5t344.5 153.5q224 0 343.5 -150.5t119.5 -410.5q0 -254 -121.5 -409t-343.5 -155q-223 0 -343.5 151t-120.5 411zM279 1407q39 80 93 127t124 47q43 0 73.5 -15.5t69.5 -41.5q35 -25 53.5 -34t40.5 -9q31 0 55.5 21.5t53.5 70.5l110 -55 q-39 -84 -95 -126t-124 -42q-39 0 -70.5 14t-70.5 41q-31 23 -52.5 33t-43.5 10q-33 0 -57.5 -22.5t-51.5 -71.5zM336 539q0 -213 68.5 -316.5t209.5 -103.5t210 103.5t69 318.5q0 213 -68.5 316.5t-208.5 103.5q-141 0 -210.5 -104.5t-69.5 -317.5z" />
<glyph unicode="&#xf6;" d="M150 539q0 256 121.5 409.5t344.5 153.5q224 0 343.5 -150.5t119.5 -410.5q0 -254 -121.5 -409t-343.5 -155q-223 0 -343.5 151t-120.5 411zM289 1436q0 49 32.5 80.5t79.5 31.5t79 -31.5t32 -80.5q0 -47 -31.5 -78t-79.5 -31q-47 0 -79.5 32t-32.5 77zM336 539 q0 -213 68.5 -316.5t209.5 -103.5t210 103.5t69 318.5q0 213 -68.5 316.5t-208.5 103.5q-141 0 -210.5 -104.5t-69.5 -317.5zM715 1436q0 49 31.5 80.5t78.5 31.5t80 -31.5t33 -80.5q0 -45 -33 -77t-80 -32t-78.5 31t-31.5 78z" />
<glyph unicode="&#xf7;" d="M238 565v148h753v-148h-753zM475 238q0 57 41 97t98 40q58 0 99 -40t41 -97t-41 -97.5t-99 -40.5q-57 0 -98 40t-41 98zM475 1040q0 57 41 97.5t98 40.5q58 0 99 -40t41 -98q0 -57 -40 -96t-100 -39q-59 0 -99 39t-40 96z" />
<glyph unicode="&#xf8;" d="M150 539q0 256 121.5 409.5t344.5 153.5q45 0 101 -10l78 247l143 -43l-84 -256q109 -65 167 -195t58 -304q0 -254 -121.5 -409t-343.5 -155q-59 0 -102 9l-76 -252l-143 41l86 262q-111 66 -170 195.5t-59 306.5zM336 539q0 -270 106 -365l242 780q-31 6 -68 7 q-280 0 -280 -422zM547 125q31 -6 67 -6q279 0 279 422q0 270 -105 362z" />
<glyph unicode="&#xf9;" d="M205 295v784h172v-766q0 -104 44 -152t138 -48q86 0 166 49t127 123v794h172v-1079h-147l-15 145q-63 -80 -156.5 -124t-189.5 -44q-154 0 -232.5 82t-78.5 236zM377 1464l94 148l377 -244l-55 -94z" />
<glyph unicode="&#xfa;" d="M205 295v784h172v-766q0 -104 44 -152t138 -48q86 0 166 49t127 123v794h172v-1079h-147l-15 145q-63 -80 -156.5 -124t-189.5 -44q-154 0 -232.5 82t-78.5 236zM383 1403l403 229l78 -147l-428 -174z" />
<glyph unicode="&#xfb;" d="M205 295v784h172v-766q0 -104 44 -152t138 -48q86 0 166 49t127 123v794h172v-1079h-147l-15 145q-63 -80 -156.5 -124t-189.5 -44q-154 0 -232.5 82t-78.5 236zM281 1372l276 244h117l274 -244l-78 -84l-254 187l-254 -187z" />
<glyph unicode="&#xfc;" d="M205 295v784h172v-766q0 -104 44 -152t138 -48q86 0 166 49t127 123v794h172v-1079h-147l-15 145q-63 -80 -156.5 -124t-189.5 -44q-154 0 -232.5 82t-78.5 236zM289 1436q0 49 32.5 80.5t79.5 31.5t79 -31.5t32 -80.5q0 -47 -31.5 -78t-79.5 -31q-47 0 -79.5 32 t-32.5 77zM715 1436q0 49 31.5 80.5t78.5 31.5t80 -31.5t33 -80.5q0 -45 -33 -77t-80 -32t-78.5 31t-31.5 78z" />
<glyph unicode="&#xfd;" d="M127 1079h182l309 -948l306 948h178l-377 -1085q-63 -186 -174 -297t-309 -131l-25 137q109 18 173.5 56t101 94.5t67.5 146.5h-57zM383 1403l403 229l78 -147l-428 -174z" />
<glyph unicode="&#xfe;" d="M205 -434v1947l172 21v-590q59 76 140 117t171 41q391 0 391 -561q0 -256 -106.5 -410t-308.5 -154q-176 0 -287 123v-514zM377 256q43 -63 107.5 -99t140.5 -36q135 0 201.5 103.5t66.5 316.5t-59.5 317.5t-186.5 104.5q-82 0 -150.5 -49.5t-119.5 -122.5v-535z" />
<glyph unicode="&#xff;" d="M127 1079h182l309 -948l306 948h178l-377 -1085q-63 -186 -174 -297t-309 -131l-25 137q109 18 173.5 56t101 94.5t67.5 146.5h-57zM289 1436q0 49 32.5 80.5t79.5 31.5t79 -31.5t32 -80.5q0 -47 -31.5 -78t-79.5 -31q-47 0 -79.5 32t-32.5 77zM715 1436q0 49 31.5 80.5 t78.5 31.5t80 -31.5t33 -80.5q0 -45 -33 -77t-80 -32t-78.5 31t-31.5 78z" />
<glyph unicode="&#x152;" d="M-2 702q0 356 109.5 544t326.5 188q68 0 146 -23h665l-20 -145h-500q119 -141 133 -478h316v-145h-316q-8 -346 -141 -498h547v-145h-691q-72 -23 -139 -23q-436 0 -436 725zM188 702q0 -307 60.5 -444t183.5 -137q131 0 190.5 136t59.5 448q0 311 -58.5 446t-191.5 135 q-127 0 -185.5 -137t-58.5 -447z" />
<glyph unicode="&#x153;" d="M-4 539q0 262 85 412.5t261 150.5q121 0 187.5 -54.5t103.5 -156.5q86 211 287 211q174 0 257 -137.5t83 -393.5q0 -45 -5 -94h-538q14 -186 66.5 -271t158.5 -85q53 0 97 19.5t100 62.5l80 -119q-66 -53 -132.5 -80t-148.5 -27q-111 0 -187.5 53.5t-117.5 153.5 q-41 -100 -109.5 -153.5t-181.5 -53.5q-174 0 -260 148.5t-86 413.5zM178 539q0 -223 43 -321.5t144 -98.5q68 0 106.5 41t56 132t17.5 249q0 219 -42 320.5t-138 101.5q-101 0 -144 -102.5t-43 -321.5zM717 612h375q-4 178 -42 262t-135 84q-94 0 -140 -77.5t-58 -268.5z " />
<glyph unicode="&#x178;" d="M47 1411h197l374 -709l379 709h185l-477 -866v-545h-181v543zM297 1681q0 47 31.5 79t80.5 32q47 0 79 -31.5t32 -79.5q0 -47 -31.5 -77.5t-79.5 -30.5q-49 0 -80.5 30.5t-31.5 77.5zM721 1681q0 47 31.5 79t78.5 32t80 -31.5t33 -79.5q0 -47 -33 -77.5t-80 -30.5 t-78.5 30.5t-31.5 77.5z" />
<glyph unicode="&#x2c6;" d="M281 1372l276 244h117l274 -244l-78 -84l-254 187l-254 -187z" />
<glyph unicode="&#x2dc;" d="M279 1407q39 80 93 127t124 47q43 0 73.5 -15.5t69.5 -41.5q35 -25 53.5 -34t40.5 -9q31 0 55.5 21.5t53.5 70.5l110 -55q-39 -84 -95 -126t-124 -42q-39 0 -70.5 14t-70.5 41q-31 23 -52.5 33t-43.5 10q-33 0 -57.5 -22.5t-51.5 -71.5z" />
<glyph unicode="&#x2000;" horiz-adv-x="965" />
<glyph unicode="&#x2001;" horiz-adv-x="1931" />
<glyph unicode="&#x2002;" horiz-adv-x="965" />
<glyph unicode="&#x2003;" horiz-adv-x="1931" />
<glyph unicode="&#x2004;" horiz-adv-x="643" />
<glyph unicode="&#x2005;" horiz-adv-x="482" />
<glyph unicode="&#x2006;" horiz-adv-x="321" />
<glyph unicode="&#x2007;" horiz-adv-x="321" />
<glyph unicode="&#x2008;" horiz-adv-x="241" />
<glyph unicode="&#x2009;" horiz-adv-x="386" />
<glyph unicode="&#x200a;" horiz-adv-x="107" />
<glyph unicode="&#x2010;" d="M256 567v148h717v-148h-717z" />
<glyph unicode="&#x2011;" d="M256 567v148h717v-148h-717z" />
<glyph unicode="&#x2012;" d="M256 567v148h717v-148h-717z" />
<glyph unicode="&#x2013;" d="M68 567v148h1093v-148h-1093z" />
<glyph unicode="&#x2014;" d="M0 567v148h1229v-148h-1229z" />
<glyph unicode="&#x2018;" d="M446 1128q0 59 35 134l168 354h135l-84 -377q25 -16 40.5 -47t15.5 -64q0 -63 -46 -107t-110 -44q-63 0 -108.5 44t-45.5 107z" />
<glyph unicode="&#x2019;" d="M442 977l84 377q-25 18 -40 48t-15 64q0 62 47 106t109 44q66 0 111.5 -43t45.5 -107q0 -29 -8 -57.5t-31 -77.5l-167 -354h-136z" />
<glyph unicode="&#x201a;" d="M442 -373l84 377q-25 16 -40 47t-15 64q0 61 47 106t109 45q66 0 110.5 -44t44.5 -107q0 -29 -7 -57.5t-30 -75.5l-167 -355h-136z" />
<glyph unicode="&#x201c;" d="M223 1128q0 55 37 134l166 354h137l-84 -377q25 -16 39 -46t14 -65q0 -63 -45 -107t-110 -44q-63 0 -108.5 44t-45.5 107zM668 1128q0 59 34 134l168 354h136l-84 -377q25 -16 40 -47t15 -64q0 -61 -47 -106t-109 -45q-63 0 -108 44t-45 107z" />
<glyph unicode="&#x201d;" d="M221 975l82 377q-25 16 -39 47t-14 65q0 62 47 106t109 44q66 0 110.5 -43t44.5 -107q0 -29 -8 -57.5t-31 -77.5l-166 -354h-135zM664 975l84 377q-25 16 -39.5 47t-14.5 65q0 62 46 106t110 44q63 0 109.5 -44t46.5 -106q0 -29 -8.5 -57.5t-30.5 -77.5l-168 -354h-135z " />
<glyph unicode="&#x201e;" d="M223 -373l84 377q-25 16 -40 47t-15 64q0 61 47 106t109 45q66 0 111.5 -44t45.5 -107q0 -29 -8 -56.5t-31 -76.5l-168 -355h-135zM664 -373l84 377q-25 16 -39.5 46t-14.5 65q0 63 46 107t110 44q63 0 108.5 -44t45.5 -107q0 -53 -37 -133l-168 -355h-135z" />
<glyph unicode="&#x2022;" d="M365 700q0 106 70.5 177t178.5 71q109 0 179.5 -70.5t70.5 -179.5q0 -106 -70.5 -176.5t-179.5 -70.5q-106 0 -177.5 71.5t-71.5 177.5z" />
<glyph unicode="&#x2026;" d="M66 117q0 57 39.5 97t97.5 40q59 0 99 -40t40 -97q0 -59 -40 -99.5t-99 -40.5q-57 0 -97 40t-40 100zM475 117q0 57 41 97t98 40t97.5 -40t40.5 -97q0 -59 -40 -99.5t-98 -40.5q-57 0 -98 41t-41 99zM887 117q0 57 40 97t97 40q59 0 99 -40t40 -97q0 -59 -40 -99.5 t-99 -40.5q-57 0 -97 40t-40 100z" />
<glyph unicode="&#x202f;" horiz-adv-x="386" />
<glyph unicode="&#x2039;" d="M385 539v125l356 426l103 -64l-275 -424l275 -424l-103 -65z" />
<glyph unicode="&#x203a;" d="M385 178l274 424l-274 424l102 64l357 -426v-125l-357 -426z" />
<glyph unicode="&#x205f;" horiz-adv-x="482" />
<glyph unicode="&#x20ac;" d="M72 496l30 122h148l2 189h-180l30 121h164q45 240 183.5 373t330.5 133q103 0 179.5 -22.5t148.5 -70.5l-86 -124q-113 70 -234 69q-139 0 -225 -86t-114 -272h501l-28 -121h-488v-189h447l-29 -122h-410q25 -193 106 -282t230 -89q88 0 163 28.5t126 73.5v-178 q-129 -72 -295 -72q-213 0 -343 133.5t-167 385.5h-190z" />
<glyph unicode="&#x2122;" d="M27 1294v115h739l106 -575l89 575h194l31 -799h-125l-19 475l-2 45q-4 104 -2 156h-4l-96 -598h-133l-117 598h-6q2 -31 2 -98q0 -68 -2 -101l-18 -477h-119l28 684h-217v-684h-127v684h-202z" />
<glyph unicode="&#x25fc;" horiz-adv-x="1075" d="M0 0v1075h1075v-1075h-1075z" />
<glyph unicode="&#xfb01;" d="M41 942v137h184v131q0 96 52.5 170t143.5 114t204 40q154 0 293 -57l-56 -129q-102 45 -231 45q-231 0 -232 -179v-135h609v-942h192v-137h-557v137h191v805h-435v-942h-174v942h-184z" />
<glyph unicode="&#xfb02;" d="M29 942v137h186v131q0 145 113.5 234.5t285.5 89.5q96 0 201 -37l154 33v-1284q0 -70 26.5 -97.5t77.5 -27.5q49 0 111 22l47 -123q-43 -20 -84 -31.5t-98 -11.5q-115 0 -184.5 66t-69.5 197v1130q-76 23 -172 23q-233 0 -234 -179v-135h258l-20 -137h-238v-942h-174v942 h-186z" />
</font>
</defs>
</svg>
