<?xml version="1.0" encoding="UTF-8" standalone="no"?>
<!-- Created with Inkscape (http://www.inkscape.org/) -->

<svg
   xmlns:dc="http://purl.org/dc/elements/1.1/"
   xmlns:cc="http://creativecommons.org/ns#"
   xmlns:rdf="http://www.w3.org/1999/02/22-rdf-syntax-ns#"
   xmlns:svg="http://www.w3.org/2000/svg"
   xmlns="http://www.w3.org/2000/svg"
   xmlns:xlink="http://www.w3.org/1999/xlink"
   xmlns:sodipodi="http://sodipodi.sourceforge.net/DTD/sodipodi-0.dtd"
   xmlns:inkscape="http://www.inkscape.org/namespaces/inkscape"
   width="600"
   height="256"
   id="svg2"
   version="1.1"
   inkscape:version="0.48.2 r9819"
   sodipodi:docname="vote-print.svg"
   inkscape:export-filename="/Users/maximilianstrauch/Documents/BSc Semester 6/J2EE/projekt/icon_vote_large.png"
   inkscape:export-xdpi="180"
   inkscape:export-ydpi="180">
  <defs
     id="defs4">
    <linearGradient
       id="linearGradient4850">
      <stop
         style="stop-color:#ffffff;stop-opacity:0.72173911;"
         offset="0"
         id="stop4852" />
      <stop
         style="stop-color:#ffffff;stop-opacity:0;"
         offset="1"
         id="stop4854" />
    </linearGradient>
    <linearGradient
       id="linearGradient4809">
      <stop
         style="stop-color:#ededed;stop-opacity:1;"
         offset="0"
         id="stop4811" />
      <stop
         style="stop-color:#ffffff;stop-opacity:1;"
         offset="1"
         id="stop4813" />
    </linearGradient>
    <inkscape:perspective
       sodipodi:type="inkscape:persp3d"
       inkscape:vp_x="0 : 71 : 1"
       inkscape:vp_y="0 : 1000 : 0"
       inkscape:vp_z="142 : 71 : 1"
       inkscape:persp3d-origin="71 : 47.333333 : 1"
       id="perspective4094" />
    <linearGradient
       inkscape:collect="always"
       xlink:href="#linearGradient3937"
       id="linearGradient4260"
       gradientUnits="userSpaceOnUse"
       gradientTransform="matrix(1.193821,0,0,1.193821,888.63967,1032.9694)"
       x1="-497.70731"
       y1="-612.09888"
       x2="-356.7659"
       y2="-745.43292" />
    <linearGradient
       id="linearGradient3937">
      <stop
         id="stop3939"
         offset="0"
         style="stop-color:#0e836a;stop-opacity:1;" />
      <stop
         id="stop3941"
         offset="1"
         style="stop-color:#90f4df;stop-opacity:1;" />
    </linearGradient>
    <linearGradient
       inkscape:collect="always"
       xlink:href="#linearGradient4809"
       id="linearGradient4906"
       gradientUnits="userSpaceOnUse"
       x1="679.79657"
       y1="1105.9845"
       x2="580.49664"
       y2="1062.5613" />
    <linearGradient
       inkscape:collect="always"
       xlink:href="#linearGradient4850"
       id="linearGradient4908"
       gradientUnits="userSpaceOnUse"
       x1="585.49664"
       y1="1039.6453"
       x2="614.25287"
       y2="1106.3153" />
  </defs>
  <sodipodi:namedview
     id="base"
     pagecolor="#ffffff"
     bordercolor="#666666"
     borderopacity="1.0"
     inkscape:pageopacity="0.0"
     inkscape:pageshadow="2"
     inkscape:zoom="1.0908333"
     inkscape:cx="571.33633"
     inkscape:cy="89.31349"
     inkscape:document-units="px"
     inkscape:current-layer="layer1"
     showgrid="false"
     fit-margin-top="0"
     fit-margin-left="0"
     fit-margin-right="0"
     fit-margin-bottom="0"
     inkscape:window-width="1440"
     inkscape:window-height="792"
     inkscape:window-x="0"
     inkscape:window-y="0"
     inkscape:window-maximized="1" />
  <metadata
     id="metadata7">
    <rdf:RDF>
      <cc:Work
         rdf:about="">
        <dc:format>image/svg+xml</dc:format>
        <dc:type
           rdf:resource="http://purl.org/dc/dcmitype/StillImage" />
        <dc:title />
      </cc:Work>
    </rdf:RDF>
  </metadata>
  <g
     inkscape:label="Ebene 1"
     inkscape:groupmode="layer"
     id="layer1"
     transform="translate(-22.217116,-92.29029)">
    <path
       inkscape:connector-curvature="0"
       style="color:#000000;fill:#8d5fd3;fill-opacity:1;fill-rule:nonzero;stroke:none;stroke-width:1.70000005;marker:none;visibility:visible;display:inline;overflow:visible;enable-background:accumulate"
       d="m 574.79604,95.909831 c -8.74626,0.468551 -17.91107,4.341879 -24.08968,9.433469 -9.23044,7.62173 -14.16582,19.22303 -15.49339,29.48112 -0.62471,5.27899 -1.40563,12.72893 -2.01475,22.91051 l -1.68678,26.44961 c -3.02994,-2.45206 -5.90372,-5.10719 -9.26164,-7.07508 -0.0532,0 0,-0.15003 0,-0.15617 -0.0532,-0.0531 -0.12331,0 -0.15617,0 -12.41655,-7.37183 -26.95407,-10.77663 -41.94609,-10.77663 -11.40137,0 -22.61063,1.79611 -33.02025,5.90371 -0.0531,0 -0.11716,0 -0.15616,0 -7.10633,2.76445 -13.35365,6.96578 -19.20427,11.62003 0.0594,-0.78092 0.62474,-1.56181 0.62474,-2.18656 -0.002,-9.58965 -5.43519,-20.23509 -11.79183,-26.11226 l 0.15617,-0.15616 c -0.15617,-0.14522 -0.31239,-0.15618 -0.46856,-0.31236 -0.0595,-0.0532 -0.10771,-0.11253 -0.15617,-0.15617 -3.4048,-3.01433 -7.20004,-4.90415 -11.12024,-6.40351 -0.0812,-4.15447 -0.15152,-8.18401 -0.9371,-12.46341 l 0.15617,0 c 0,-0.11865 -0.14688,-0.15616 -0.15617,-0.31238 -0.0546,-0.15616 0.053,-0.31235 0,-0.46854 l -0.15616,0 c -1.59307,-7.54365 -5.76317,-15.08729 -11.29204,-20.21635 -6.71587,-6.23171 -16.97711,-11.12024 -27.62879,-11.12024 -7.43433,0 -14.38447,2.2022 -19.879,5.38832 -0.13426,0.075 -0.15616,0.31237 -0.31236,0.31237 -0.053,0 -0.12812,0 -0.15617,0 -5.66945,3.35793 -10.79225,8.48075 -13.80658,13.6504 -0.0546,0.0547 0,0.12962 0,0.15617 -0.0546,0.0655 -0.12962,0.10305 -0.15617,0.15616 -2.78007,4.77922 -4.91976,10.91721 -5.56012,17.01459 a 26.012561,26.012561 0 0 0 0,0.62475 c -0.15616,2.09285 -0.10161,4.79481 -0.15616,7.24688 -2.31151,-2.2178 -4.37314,-4.76359 -7.24691,-6.40351 -7.5124,-4.27941 -15.50897,-6.01304 -23.75232,-5.38832 -13.11939,0.9371 -25.27668,8.7775 -32.17684,20.38503 -0.46856,-0.004 -0.93711,-0.15616 -1.40566,-0.15616 -6.997,0.0797 -13.96278,0.9371 -20.88948,2.85815 -7.62175,2.06161 -14.71246,5.20088 -21.22686,9.08985 -2.71759,-1.40563 -5.46642,-2.07723 -8.24647,-2.85815 0.31236,-0.9371 0.31236,-1.56183 0.62474,-2.70196 a 26.012561,26.012561 0 0 0 0,-0.31236 c 0.93709,-3.34233 1.40564,-6.18486 1.68677,-8.24648 a 26.012561,26.012561 0 0 0 0,-0.15616 c 0.46854,-3.32671 0.78093,-6.99701 0.31237,-10.94844 -0.62473,-6.52846 -3.35793,-13.43175 -7.2469,-18.86848 -0.0875,-0.0796 -0.0968,-0.31238 -0.15616,-0.31238 -0.0702,-0.1016 -0.0968,-0.31235 -0.15616,-0.31235 -4.06077,-5.59136 -9.66775,-9.98011 -15.66674,-12.80703 -0.11866,-0.0546 -0.15616,-0.11401 -0.31236,-0.15617 -7.18442,-3.32668 -14.64999,-4.10761 -20.72238,-3.52974 -7.44994,0.62474 -16.94431,3.81086 -23.92101,10.60485 -0.0546,0.0546 -0.11401,0.11401 -0.15616,0.15617 -0.0594,0.0594 -0.10771,0.10771 -0.15617,0.15616 -4.26379,4.20133 -8.05904,9.69896 -10.27684,16.51012 l -0.15615,0 c -0.0531,0.086 0.0547,0.31237 0,0.31237 -1.24947,3.74839 -2.18657,7.65297 -3.52974,13.4786 l -7.57487,31.83949 -12.80703,-28.97509 c -0.0547,-0.12497 -0.11401,-0.15617 -0.15616,-0.31237 -3.35795,-7.79354 -6.57532,-14.2439 -11.79183,-20.5537 -0.05305,-0.064 -0.117168,-0.1016 -0.156163,-0.15616 -0.07962,-0.1016 -0.08596,-0.31237 -0.156163,-0.31237 l -0.156163,0.15617 c -8.886813,-10.65169 -23.347814,-14.11896 -33.860489,-13.13501 -10.151904,0.9371 -21.617312,6.95015 -28.133267,14.99357 -5.528886,6.82521 -10.308087,17.62059 -9.261671,28.80641 0.468559,4.90417 1.405659,7.76232 2.186578,10.27686 a 26.012561,26.012561 0 0 0 0.312361,0.78092 c 0.9371,2.53017 1.827336,5.31023 3.201745,8.26209 a 26.012561,26.012561 0 0 0 0.468557,0.62474 c 1.093282,1.98351 1.561823,3.29546 1.858585,4.04513 a 26.012561,26.012561 0 0 0 0.312361,0.31237 l 45.653888,95.85582 -0.156163,0 c 1.842954,4.06077 3.779639,7.88726 5.56012,11.44823 2.202176,4.43561 4.747966,8.8712 8.09027,13.13501 a 26.012561,26.012561 0 0 0 0.468561,0.62472 c 4.451224,5.35708 10.464263,9.74583 16.845913,12.63523 l 0,0.15616 c 0.0546,0 0.12961,0 0.15616,0 7.96535,3.57659 16.34612,4.40436 23.92258,3.70154 7.71544,-0.78092 15.84009,-3.12367 23.07918,-8.26209 0.064,-0.053 0.10306,-0.1233 0.15616,-0.15616 5.20091,-3.68592 10.4018,-8.98053 13.97838,-15.49336 a 26.012561,26.012561 0 0 0 0.15618,-0.15617 c 2.68633,-5.04471 4.5449,-10.07381 5.90371,-14.82178 a 26.012561,26.012561 0 0 0 0,-0.15616 c 0.93709,-3.52974 1.99914,-7.41869 3.02994,-11.62003 l 0.15616,-0.46854 1.24946,-4.21694 c 1.88982,5.49764 3.85772,10.99528 6.7315,15.8354 -10.79225,19.5432 -3.85773,44.79176 15.66672,55.92919 19.35578,11.04214 44.48095,4.27942 55.93074,-14.82179 7.26253,0.0546 14.69683,-0.9371 22.06869,-2.85815 7.6842,-2.07724 14.77492,-5.2009 21.22527,-9.08985 16.28366,8.91804 35.95649,5.09157 48.68697,-7.57489 9.44909,4.66988 19.22459,6.5753 29.31244,6.5753 11.76059,0 22.30921,-0.9371 33.18736,-6.2317 1.65554,2.13971 3.13928,4.43561 5.06034,6.40351 15.80261,16.2368 38.53974,23.41497 61.82509,23.41497 10.01134,0 19.89929,-1.09329 29.48112,-4.37313 0.0546,0 0.11865,0 0.15617,0 8.34018,-2.82691 16.179,-6.60654 23.07917,-11.96362 5.46641,-4.2638 9.83955,-9.46469 13.65042,-15.16539 2.21779,0.62475 4.31065,1.90544 6.5753,2.18657 10.41741,1.40564 21.48924,-1.56182 29.6498,-7.07509 9.68336,-6.59094 15.88539,-18.95752 17.18327,-28.9751 1.24947,-9.35536 -1.74924,-20.26476 -7.4187,-28.63929 0.0532,-0.0594 0.12962,-0.10771 0.15618,-0.15617 5.27898,-7.99657 6.98138,-14.99359 8.59006,-22.57471 0,-0.0531 0,-0.11251 0,-0.15616 l 10.94844,-50.36906 0.15616,-0.31237 -0.15616,0 c 1.24946,-5.38832 2.34274,-10.63607 3.02995,-16.00564 1.24948,-9.91763 1.76486,-19.25582 -1.85856,-29.98559 0,-0.0547 0,-0.12497 0,-0.15617 -4.65428,-13.74412 -20.57715,-23.574297 -32.34398,-25.101766 -2.71759,-0.312366 -5.26338,-0.468541 -8.41827,-0.312366 z m 1.40565,25.942029 c 1.09328,-0.0577 2.46769,0 3.70152,0.15616 5.98182,0.78093 9.6365,3.31108 11.12025,7.74668 1.56184,4.37312 1.68678,10.5736 0.62474,18.36245 -0.62474,4.59179 -1.40565,9.13671 -2.53017,13.80659 l -11.12024,50.87666 c -1.24947,6.0599 -2.85816,10.74538 -4.88853,13.80658 -2.03039,3.0612 -4.90415,4.35752 -8.59007,3.87336 -3.76401,-0.46856 -6.18485,-2.40523 -7.24691,-5.73194 -1.09328,-3.38917 -1.56182,-8.43388 -1.40564,-14.99357 l 3.20176,-50.37062 c 0.62472,-9.82393 1.24946,-16.98025 1.85857,-21.22687 0.78093,-5.77875 2.82692,-9.98008 6.2317,-12.807 2.60828,-2.15533 5.49766,-3.35794 8.93368,-3.52973 z m -211.2533,7.74667 c 3.65468,0.002 6.99701,1.40564 9.93325,4.21695 1.9679,1.82735 3.21737,4.07638 3.70153,6.7315 0.62475,2.59264 0.78093,6.27855 0.78093,11.12023 l 0,19.54163 10.44864,0 c 4.07639,0 7.1532,1.09329 9.26166,3.02996 2.17095,1.88983 3.37356,4.23256 3.37356,7.24689 0,3.85774 -1.62431,6.71589 -4.71673,8.24648 -3.01433,1.56182 -7.27813,2.18656 -12.97883,2.18656 l -5.3883,0 0,52.89765 c 0,4.49807 0.053,7.99658 0.31236,10.44866 0.31236,2.38961 1.24946,4.3575 2.53017,5.90373 1.40564,1.40564 3.65468,2.18656 6.73148,2.18656 1.68679,0 4.02954,-0.31236 6.9033,-0.78092 2.87377,-0.62473 5.12281,-0.9371 6.7315,-0.9371 2.31151,0 4.40435,0.9371 6.23171,2.85815 1.8898,1.82735 2.85814,4.17009 2.85814,6.90329 0,4.63866 -2.53017,8.15277 -7.57488,10.60485 -5.06033,2.45207 -12.41655,3.70153 -21.9,3.70153 -8.98052,0 -15.75262,-1.56183 -20.38501,-4.54494 -4.63864,-3.01433 -7.62175,-7.13755 -9.08985,-12.46341 -1.40566,-5.34145 -2.18657,-12.47903 -2.18657,-21.39551 l 0,-55.25604 -3.70155,0 c -4.13884,0.002 -7.43432,-0.9371 -9.60527,-2.85814 -2.17094,-1.96791 -3.20174,-4.56056 -3.20174,-7.57489 0,-3.01433 1.09328,-5.34145 3.37355,-7.24689 2.31152,-1.96791 5.59136,-3.02997 9.93325,-3.02997 l 3.20176,0 0,-17.18326 c 0,-4.63864 0.1233,-8.35578 0.31237,-10.94844 0.31235,-2.67071 1.09328,-4.84166 2.18655,-6.73148 1.09329,-1.96791 2.60826,-3.52974 4.71673,-4.71673 2.10847,-1.24946 4.48246,-2.01478 7.0751,-2.01478 z m -194.23713,3.70154 c 2.6551,-0.31236 5.21651,0.0595 7.57488,1.24948 2.43646,1.09328 4.43559,2.76443 5.90371,4.88853 1.56183,2.04599 2.31151,4.17008 2.53017,6.40351 0.14522,1.56181 0.0797,3.20174 -0.15616,5.06032 -0.31238,1.78048 -0.46856,3.59223 -0.9371,5.38832 -0.46856,1.73363 -1.09328,3.68592 -1.56184,5.56012 l -27.79748,103.77431 c -0.9371,3.96705 -2.03037,7.8404 -3.02995,11.44824 -0.9371,3.54535 -2.20217,6.77835 -3.70153,9.60525 -1.56184,2.74883 -3.62345,4.951 -6.40351,6.90328 -2.71759,1.93669 -6.24733,3.15492 -10.44865,3.52975 -4.18571,0.31238 -7.85602,-0.11401 -10.94844,-1.56182 -3.01435,-1.40566 -5.51326,-3.24862 -7.57488,-5.73191 -1.99915,-2.56141 -3.74841,-5.45082 -5.38831,-8.76188 -1.63993,-3.29547 -3.37357,-6.88769 -5.06035,-10.62046 L 57.889267,174.24349 c -0.78092,-1.76487 -1.671171,-3.37356 -2.530173,-5.06034 -0.780919,-1.68678 -1.561839,-3.5766 -2.186561,-5.56011 -0.62474,-1.98353 -1.093281,-3.65469 -1.249461,-5.06035 -0.312378,-3.56097 0.937084,-6.90329 3.529738,-10.10504 2.592636,-3.20175 5.934945,-4.98224 10.276836,-5.38832 5.310239,-0.46856 9.324135,0.78092 11.791825,3.87333 2.530172,3.01435 5.27899,7.90288 8.262083,14.8218 l 44.306046,99.73073 25.26886,-106.9745 c 1.24948,-5.6226 2.31152,-9.44908 3.02996,-11.62003 0.78092,-2.24905 2.10847,-4.35751 4.04514,-6.23171 1.93667,-1.93667 4.62302,-3.02995 8.2621,-3.37355 z m 125.16827,29.14533 c 2.96747,-0.15616 6.15361,0.46856 8.93367,2.01478 7.38746,4.21693 9.94887,13.49422 5.73193,20.88949 l -8.26208,14.49379 c 6.9189,6.91891 12.26036,15.65735 14.99356,25.77489 2.68636,9.96449 2.56141,19.99769 0.15617,29.31245 l 14.322,8.09029 c 7.38747,4.21694 9.94887,13.66602 5.73191,21.05974 -4.21694,7.38745 -13.66601,9.94886 -21.05816,5.73191 l -14.322,-8.26208 c -6.91891,6.88767 -15.66829,12.276 -25.77489,14.99358 -9.90201,2.67075 -19.87274,2.49892 -29.14378,0.15617 l -8.26208,14.322 c -4.21695,7.38745 -13.66603,9.94885 -21.05661,5.73191 -7.38746,-4.21694 -9.94887,-13.66603 -5.73191,-21.05817 l 8.26208,-14.32198 c -6.87206,-6.9033 -12.10421,-15.49339 -14.82179,-25.60624 -2.68633,-9.96448 -2.70197,-20.14761 -0.31236,-29.48113 l -14.322,-8.09029 c -7.38746,-4.21694 -9.94886,-13.666 -5.73191,-21.05815 2.10847,-3.68592 5.48202,-6.0443 9.26165,-7.0751 3.77963,-1.0933 8.1059,-0.78092 11.79183,1.40564 l 14.1502,8.0903 c 6.88767,-6.85644 15.7042,-12.1042 25.77488,-14.82179 4.82607,-1.24946 9.7146,-1.9679 14.4938,-2.01477 5.09157,-0.0594 9.99572,0.62474 14.82179,1.85859 l 8.26209,-14.322 c 2.63949,-4.62302 7.18442,-7.37184 12.13541,-7.74669 z m 184.2992,29.64826 c 11.22957,0 20.80517,2.46769 28.80642,7.24689 8.07467,4.70111 14.19705,10.85473 18.19378,18.364 3.99829,7.51242 5.8881,15.11854 5.8881,22.91052 0,7.23128 -1.92105,11.97925 -6.05991,14.1502 -4.13884,2.10845 -10.01134,3.02994 -17.51907,3.02994 l -56.26652,0 c 0.0687,6.52845 1.40564,12.3697 3.87334,17.35194 2.59264,4.98224 6.05991,8.76188 10.27685,11.29204 4.27943,2.53017 9.0274,3.70155 14.15019,3.70155 3.43603,0 6.45036,-0.46855 9.26167,-1.24948 2.87376,-0.78091 5.74752,-2.01474 8.41826,-3.70154 2.67075,-1.74924 4.99787,-3.5922 7.24689,-5.56011 2.24905,-1.9679 5.18529,-4.71674 8.76188,-8.0903 1.40564,-1.24945 3.67031,-1.85856 6.40351,-1.85856 2.95186,0 5.24775,0.7809 7.07509,2.35835 1.82736,1.60869 2.70197,3.96705 2.70197,6.9033 0,2.59264 -0.93711,5.59135 -3.02996,9.08986 -2.03037,3.43602 -5.12279,6.87206 -9.26163,10.10505 -4.07639,3.1549 -9.24606,5.81002 -15.49339,7.91849 -6.18484,2.10846 -13.15062,3.02994 -21.22683,3.02994 -18.46086,0 -32.87812,-5.13841 -43.12686,-15.66671 -10.24561,-10.52676 -15.33718,-24.91904 -15.33718,-42.95819 0,-8.49634 1.24947,-16.35549 3.70154,-23.58521 2.53017,-7.29375 6.27857,-13.50985 11.12023,-18.6998 4.84168,-5.2009 10.77665,-9.2148 17.85798,-11.96363 7.09072,-2.81129 14.94674,-4.21695 23.58523,-4.21695 z m -219.0031,6.5753 c -9.91763,0 -18.77009,3.4985 -25.94357,9.26165 l 20.38502,11.62004 11.62002,-20.38346 c -1.95228,-0.31238 -4.04514,-0.46856 -6.05992,-0.46856 z m 217.99104,13.47859 c -7.15319,0 -13.05691,2.43646 -17.68774,7.41872 -4.56053,4.91977 -7.27814,12.21351 -8.26209,21.89999 l 52.05428,0 c -0.62472,-9.82391 -3.27985,-17.05675 -7.91849,-21.89999 -4.56054,-4.91977 -10.68291,-7.41872 -18.19532,-7.41872 z m -185.14104,2.35838 -11.62002,20.38502 20.21478,11.62003 c 0.31237,-1.92105 0.46854,-3.90459 0.46854,-5.90372 0,-9.85516 -3.38917,-18.95907 -9.10547,-26.11226 z m -74.12294,20.21633 c -0.31238,1.92107 -0.46855,3.90459 -0.46855,5.90373 0,9.85517 3.56097,18.95908 9.26165,26.11069 l 11.62003,-20.38345 -20.38347,-11.62003 z m 339.45308,13.97841 c 1.09328,-0.0594 2.10848,-0.13907 3.20176,0 4.38874,0.62473 7.94971,2.60825 10.60483,6.05989 2.74881,3.40479 3.76402,7.30938 3.20176,11.62004 -0.62474,4.87291 -2.57702,8.40265 -6.05991,10.77664 -3.49851,2.37397 -7.44994,3.40478 -11.62003,2.85815 -4.24817,-0.62474 -7.76229,-2.43646 -10.62044,-5.56012 -2.76445,-3.18615 -3.84212,-7.18442 -3.20177,-12.13544 0.62475,-4.31066 2.51457,-7.8404 5.88812,-10.44865 2.59264,-1.99915 5.48202,-3.01433 8.59006,-3.20176 z m -292.28423,12.80701 -11.44821,20.38347 c 1.8742,0.31236 3.60784,0.46854 5.56012,0.46854 9.88639,0 19.11525,-3.35794 26.28094,-9.10548 L 267.07936,261.4624 z"
       id="path4788-4-1-0" />
  </g>
</svg>
